<svg width="45" height="33" viewBox="0 0 45 33" fill="none" xmlns="http://www.w3.org/2000/svg">
<path d="M42.5533 2.08655C41.2448 0.780461 39.479 0.0327115 37.6285 0.00104799C35.7781 -0.0306155 33.9876 0.656283 32.6349 1.91683C32.5672 1.98118 32.5132 2.05861 32.4763 2.14442C32.4394 2.23023 32.4204 2.32263 32.4204 2.416C32.4204 2.50937 32.4394 2.60177 32.4763 2.68758C32.5132 2.77339 32.5672 2.85082 32.6349 2.91516L33.4952 3.79369C33.6115 3.90908 33.7656 3.97868 33.9292 3.98969C34.0928 4.00069 34.2548 3.95236 34.3855 3.85359C35.2105 3.19593 36.2584 2.88204 37.3099 2.97756C38.3614 3.07308 39.3353 3.57061 40.0277 4.36611C40.7202 5.16162 41.0777 6.19349 41.0254 7.24595C40.9732 8.29842 40.5152 9.28997 39.7474 10.0133C34.0804 15.6638 26.5179 -0.179655 9.35198 7.98667C9.06226 8.12555 8.80452 8.32286 8.59504 8.56614C8.38556 8.80942 8.22888 9.09339 8.13489 9.40013C8.04089 9.70688 8.01163 10.0297 8.04893 10.3483C8.08624 10.6669 8.18931 10.9743 8.35164 11.2512L11.2976 16.3277C11.6027 16.8572 12.1049 17.245 12.6951 17.4067C13.2852 17.5685 13.9155 17.491 14.4487 17.1912L14.5187 17.1513L14.4637 17.1912L15.7542 16.4725C17.2092 15.5709 18.5847 14.5472 19.8656 13.4126C19.9924 13.2972 20.1562 13.2308 20.3277 13.2254C20.4992 13.2199 20.667 13.2756 20.8009 13.3826C20.8733 13.4432 20.9321 13.5184 20.9733 13.6033C21.0145 13.6882 21.0373 13.7808 21.0401 13.8751C21.043 13.9694 21.0258 14.0632 20.9897 14.1504C20.9537 14.2375 20.8996 14.3161 20.8309 14.381C19.4827 15.5929 18.0299 16.6837 16.4894 17.6405H16.4444L15.139 18.3693C14.5876 18.6783 13.9657 18.8399 13.3333 18.8385C12.6784 18.8408 12.0345 18.6709 11.4664 18.3458C10.8982 18.0207 10.426 17.5519 10.0972 16.9866L7.31128 12.1896C1.98446 15.9733 -1.28666 23.2411 0.483943 32.4457C0.513009 32.6008 0.59532 32.741 0.716725 32.8421C0.838129 32.9432 0.991041 32.999 1.14917 32.9998H4.29025C4.46329 33.0043 4.63154 32.9427 4.76071 32.8277C4.88989 32.7127 4.97027 32.5529 4.98548 32.3808C5.13306 31.2658 5.68165 30.2423 6.5291 29.501C7.37655 28.7596 8.4651 28.3508 9.59206 28.3508C10.719 28.3508 11.8076 28.7596 12.655 29.501C13.5025 30.2423 14.0511 31.2658 14.1986 32.3808C14.2182 32.5445 14.2972 32.6953 14.4207 32.8048C14.5443 32.9143 14.7037 32.9748 14.8689 32.9748H17.9399C18.1048 32.9737 18.2637 32.9128 18.3869 32.8036C18.5102 32.6943 18.5895 32.5441 18.6101 32.3808C18.7577 31.2658 19.3063 30.2423 20.1538 29.501C21.0012 28.7596 22.0898 28.3508 23.2167 28.3508C24.3437 28.3508 25.4322 28.7596 26.2797 29.501C27.1271 30.2423 27.6757 31.2658 27.8233 32.3808C27.8439 32.5441 27.9232 32.6943 28.0465 32.8036C28.1698 32.9128 28.3287 32.9737 28.4935 32.9748H31.5446C31.7233 32.9748 31.8948 32.9047 32.0221 32.7795C32.1494 32.6544 32.2222 32.4842 32.2248 32.3059C32.2948 28.0131 33.4552 23.0814 36.7614 20.6105C48.2153 12.0598 45.2043 4.73212 42.5533 2.08655ZM30.8743 14.9999L28.6886 13.9068C28.6884 13.6732 28.7481 13.4435 28.8621 13.2395C28.976 13.0355 29.1405 12.864 29.3397 12.7414C29.5388 12.6188 29.7662 12.5492 30 12.5391C30.2338 12.529 30.4663 12.5789 30.6753 12.6839C30.8844 12.7889 31.063 12.9456 31.1941 13.1391C31.3253 13.3325 31.4046 13.5562 31.4245 13.7889C31.4445 14.0216 31.4044 14.2556 31.3081 14.4684C31.2118 14.6813 31.0625 14.866 30.8743 15.0049V14.9999Z" fill="url(#paint0_linear_441_59)"/>
<defs>
<linearGradient id="paint0_linear_441_59" x1="0.734028" y1="14.5207" x2="44.147" y2="19.0913" gradientUnits="userSpaceOnUse">
<stop stop-color="#06A0CE"/>
<stop offset="1" stop-color="#51CBBF"/>
</linearGradient>
</defs>
</svg>
