<svg width="48" height="48" viewBox="0 0 48 48" fill="none" xmlns="http://www.w3.org/2000/svg">
<path d="M8.96328 3.79951C8.57652 5.09208 8.37452 6.43286 8.36328 7.78201L10.5038 8.81851C10.4635 7.54606 10.5136 6.27235 10.6538 5.00701C10.6613 4.92001 10.6703 4.86901 10.6703 4.86901C10.6703 4.91551 10.6568 4.96051 10.6538 5.00701C10.5536 6.25844 10.552 7.51583 10.6493 8.76751C11.758 7.82357 12.8164 6.8222 13.8203 5.76751C13.6093 5.20599 13.2897 4.6916 12.8796 4.25378C12.4696 3.81595 11.9773 3.4633 11.4308 3.21601C11.4308 3.21601 9.53478 2.45101 8.96328 3.79951Z" fill="url(#paint0_linear_441_12)"/>
<path d="M16.3832 20.2426C16.2827 20.3521 16.1792 20.4556 16.0742 20.5591C16.1282 20.5096 16.1837 20.4511 16.2347 20.3971C16.2872 20.3485 16.3368 20.2969 16.3832 20.2426Z" fill="#BE202E"/>
<path opacity="0.35" d="M16.3832 20.2426C16.2827 20.3521 16.1792 20.4556 16.0742 20.5591C16.1282 20.5096 16.1837 20.4511 16.2347 20.3971C16.2872 20.3485 16.3368 20.2969 16.3832 20.2426Z" fill="#BE202E"/>
<path d="M15.5992 18.534C15.6172 18.5205 15.6307 18.5025 15.6472 18.489C15.7147 18.4215 15.7822 18.354 15.8392 18.285C15.7642 18.3675 15.6802 18.447 15.5992 18.534Z" fill="#BE202E"/>
<path opacity="0.35" d="M15.5992 18.534C15.6172 18.5205 15.6307 18.5025 15.6472 18.489C15.7147 18.4215 15.7822 18.354 15.8392 18.285C15.7642 18.3675 15.6802 18.447 15.5992 18.534Z" fill="#BE202E"/>
<path d="M11.0698 15.138C10.9698 14.426 10.8798 13.726 10.7998 13.038C10.7173 12.3225 10.6498 11.6205 10.6033 10.926C10.6033 10.884 10.5958 10.842 10.6033 10.8045C10.5478 10.1265 10.5148 9.465 10.4998 8.817L8.36228 7.7865C8.36228 7.9155 8.34728 8.049 8.34278 8.19C8.32178 8.7015 8.30528 9.24 8.30078 9.8175C8.30078 10.4625 8.30078 11.1345 8.31278 11.838C8.32778 12.486 8.35478 13.161 8.38928 13.848C8.42378 14.436 8.46278 15.03 8.51078 15.636V15.705L11.3698 17.1525C11.2753 16.476 11.1703 15.804 11.0698 15.138Z" fill="url(#paint1_linear_441_12)"/>
<path d="M15.2991 32.043C15.4491 32.577 15.6171 33.1275 15.7911 33.6855V33.708C15.8151 33.789 15.8346 33.8655 15.8646 33.9435C15.9786 34.32 16.0881 34.6545 16.3251 35.4195C16.899 35.3844 17.4704 35.5212 17.9661 35.8125C17.5772 35.3355 17.0164 35.0306 16.4046 34.9635C17.2281 34.5434 17.9196 33.9042 18.4031 33.1163C18.8867 32.3285 19.1434 31.4224 19.1451 30.498C19.1271 30.339 19.1061 30.174 19.0746 30.009C19.0573 30.374 18.9412 30.7275 18.7389 31.0318C18.5366 31.3361 18.2555 31.5798 17.9256 31.737C18.6189 30.6857 18.9409 29.4328 18.8406 28.1775C18.8181 27.888 18.7806 27.5775 18.7281 27.249C18.6449 28.0427 18.3559 28.8009 17.8897 29.4486C17.4235 30.0963 16.7963 30.6111 16.0701 30.942L15.2031 31.74C15.2346 31.8405 15.2616 31.9395 15.2991 32.043Z" fill="url(#paint2_linear_441_12)"/>
<path d="M14.1778 29.6025C13.9963 28.9245 13.8148 28.236 13.6303 27.5415C13.4563 26.8755 13.2898 26.2035 13.1233 25.5225C12.9568 24.8415 12.7963 24.156 12.6373 23.4705C12.4783 22.785 12.3223 22.0695 12.1753 21.3705C12.0283 20.6715 11.8903 19.974 11.7523 19.281C11.7028 19.029 11.6578 18.783 11.6128 18.531C11.5333 18.102 11.4628 17.67 11.3848 17.2365C11.3848 17.214 11.3773 17.1885 11.3698 17.166L8.52734 15.7155C8.5339 15.7607 8.53741 15.8063 8.53784 15.852C8.59484 16.4955 8.65034 17.1495 8.72684 17.802C8.80334 18.4545 8.88584 19.137 8.98484 19.8135C9.06884 20.3835 9.15884 20.949 9.25334 21.5205C9.27284 21.633 9.29534 21.7515 9.31484 21.8625C9.44534 22.569 9.58634 23.2515 9.73784 23.889C9.90734 24.612 10.0903 25.29 10.2733 25.923C10.3963 26.337 10.5178 26.736 10.6423 27.114C10.7503 27.432 10.8673 27.7515 10.9798 28.0665C11.2513 28.806 11.5528 29.523 11.8798 30.2235L14.7523 31.6785C14.6023 31.1505 14.4523 30.6135 14.3023 30.069C14.2603 29.9115 14.2213 29.76 14.1778 29.6025Z" fill="url(#paint3_linear_441_12)"/>
<path d="M11.9206 30.312C12.3099 31.1522 12.7513 31.9673 13.2421 32.7525C13.2586 32.7765 13.2751 32.8095 13.2916 32.8335C12.579 32.638 11.8357 32.5804 11.1016 32.664C12.4352 33.0349 13.6508 33.7432 14.6311 34.7205C14.1557 35.1374 13.5814 35.4256 12.9631 35.5575C13.577 35.6587 14.2065 35.603 14.7931 35.3955C14.2293 36.0028 13.8442 36.7539 13.6801 37.566C14.0845 36.7665 14.7124 36.1015 15.4876 35.652C16.3501 38.511 17.3881 41.61 18.5386 44.862C18.6266 44.7486 18.6851 44.615 18.7086 44.4734C18.7322 44.3317 18.7202 44.1864 18.6736 44.0505C18.4621 43.467 17.0926 39.5985 15.5311 34.3485C15.4861 34.1985 15.4471 34.0485 15.3976 33.8985C15.3841 33.855 15.3736 33.8175 15.3601 33.7725C15.2001 33.2225 15.0371 32.6565 14.8711 32.0745C14.8351 31.9395 14.7961 31.8135 14.7601 31.677L11.8876 30.222C11.8959 30.253 11.9069 30.2831 11.9206 30.312Z" fill="url(#paint4_linear_441_12)"/>
<path d="M11.7076 17.214C11.7241 17.31 11.7421 17.3955 11.7586 17.493C11.8141 17.778 11.8636 18.066 11.9221 18.3555C11.9821 18.672 12.0481 18.9945 12.1111 19.326C12.1426 19.4925 12.1741 19.659 12.2101 19.83C12.3136 20.34 12.4261 20.862 12.5416 21.4005C12.6916 22.062 12.8416 22.7415 13.0081 23.4495C13.1581 24.1185 13.3351 24.816 13.5121 25.5255C13.6846 26.202 13.8586 26.895 14.0506 27.612C14.2186 28.2465 14.4001 28.899 14.5831 29.562C14.5831 29.5935 14.6041 29.628 14.6101 29.6595C14.7946 30.318 14.9881 30.9975 15.1891 31.689C15.1903 31.7043 15.1949 31.7191 15.2026 31.7325L16.0696 30.9345C16.0471 30.9345 16.0306 30.954 16.0021 30.966C17.1801 29.67 17.9192 28.0354 18.1141 26.295C18.2064 25.4284 18.1974 24.554 18.0871 23.6895C17.9954 22.9384 17.8561 22.1939 17.6701 21.4605C17.4991 20.7735 17.2891 20.0445 17.0326 19.2765C16.856 19.6232 16.6335 19.9446 16.3711 20.232L16.2211 20.397C16.1716 20.4525 16.1161 20.5005 16.0606 20.559C16.7503 19.4345 16.9742 18.0854 16.6846 16.7985C16.4909 17.3418 16.2002 17.8455 15.8266 18.285C15.7696 18.354 15.7021 18.4215 15.6346 18.489C15.6166 18.5025 15.6031 18.5205 15.5806 18.5385C15.8173 18.1568 16.0043 17.7465 16.1371 17.3175C16.1635 17.2338 16.1851 17.1486 16.2016 17.0625C16.2316 16.932 16.2526 16.8 16.2721 16.668C16.2796 16.581 16.2931 16.5 16.3006 16.4115C16.318 16.2053 16.318 15.9981 16.3006 15.792C16.3006 15.723 16.3006 15.6615 16.2841 15.597C16.2676 15.501 16.2556 15.411 16.2376 15.324C16.1686 14.9235 16.0876 14.574 16.0141 14.274C15.9751 14.124 15.9391 13.986 15.9001 13.8615C15.8821 13.812 15.8731 13.764 15.8551 13.7115C15.8086 13.575 15.7711 13.449 15.7291 13.344C15.6831 13.2202 15.6306 13.099 15.5716 12.981C15.5573 13.0407 15.5362 13.0986 15.5086 13.1535C15.2568 13.6673 14.928 14.1398 14.5336 14.5545L15.3331 13.824L14.5291 14.55C14.5255 14.552 14.5224 14.5548 14.5201 14.5581C14.5177 14.5615 14.5162 14.5654 14.5156 14.5695C14.4743 14.6108 14.4352 14.6544 14.3986 14.7C14.3986 14.6895 14.4121 14.6805 14.4136 14.6715L11.6836 17.169C11.7061 17.1885 11.7091 17.2035 11.7076 17.214Z" fill="url(#paint5_linear_441_12)"/>
<path d="M10.6484 8.76756C10.6814 9.36756 10.7339 10.0396 10.7984 10.7836C10.7998 10.8229 10.8043 10.862 10.8119 10.9006C10.8734 11.5501 10.9529 12.2506 11.0549 13.0141C11.1419 13.6726 11.2379 14.3641 11.3549 15.1141C11.4524 15.7636 11.5724 16.4431 11.6954 17.1646L14.4254 14.6641C14.8897 13.9249 15.128 13.0662 15.1109 12.1936C15.1109 11.9791 15.0944 11.7541 15.0779 11.5231C15.035 10.8035 14.9559 10.0866 14.8409 9.37506C14.7395 8.72485 14.6038 8.08045 14.4344 7.44456C14.3464 7.11301 14.2418 6.7861 14.1209 6.46506C14.0234 6.22056 13.9214 5.99706 13.8209 5.78406C12.8143 6.83126 11.7554 7.82703 10.6484 8.76756Z" fill="url(#paint6_linear_441_12)"/>
<path d="M16.2386 20.4C16.1891 20.4555 16.1336 20.5035 16.0781 20.562C16.1286 20.5051 16.1822 20.4511 16.2386 20.4Z" fill="#BE202E"/>
<path opacity="0.35" d="M16.2386 20.4C16.1891 20.4555 16.1336 20.5035 16.0781 20.562C16.1286 20.5051 16.1822 20.4511 16.2386 20.4Z" fill="#BE202E"/>
<path d="M16.2386 20.4C16.1891 20.4555 16.1336 20.5035 16.0781 20.562C16.1286 20.5051 16.1822 20.4511 16.2386 20.4Z" fill="url(#paint7_linear_441_12)"/>
<path d="M15.6016 18.5385C15.6196 18.525 15.6331 18.507 15.6556 18.489C15.6376 18.5025 15.6241 18.5205 15.6016 18.5385Z" fill="#BE202E"/>
<path opacity="0.35" d="M15.6016 18.5385C15.6196 18.525 15.6331 18.507 15.6556 18.489C15.6376 18.5025 15.6241 18.5205 15.6016 18.5385Z" fill="#BE202E"/>
<path d="M15.6016 18.5385C15.6196 18.525 15.6331 18.507 15.6556 18.489C15.6376 18.5025 15.6241 18.5205 15.6016 18.5385Z" fill="url(#paint8_linear_441_12)"/>
<path d="M36.9413 4.33656C35.6051 5.07148 34.3795 5.99158 33.3008 7.06956L34.2008 9.60456C35.1797 8.54874 36.2323 7.56377 37.3508 6.65706C37.4273 6.59406 37.4738 6.55806 37.4738 6.55806C37.4348 6.59406 37.3898 6.62106 37.3508 6.65706C36.273 7.58317 35.2699 8.5928 34.3508 9.67656C35.9918 9.7986 37.638 9.83465 39.2828 9.78456C39.5603 9.16426 39.7126 8.49524 39.7309 7.81593C39.7492 7.13662 39.6331 6.46038 39.3893 5.82606C39.3893 5.82606 38.4713 3.70506 36.9413 4.33656Z" fill="url(#paint9_linear_441_12)"/>
<path d="M29.8487 23.469C29.6807 23.478 29.5142 23.478 29.3477 23.478H29.6057C29.6868 23.4798 29.7679 23.4768 29.8487 23.469Z" fill="#BE202E"/>
<path opacity="0.35" d="M29.8487 23.469C29.6807 23.478 29.5142 23.478 29.3477 23.478H29.6057C29.6868 23.4798 29.7679 23.4768 29.8487 23.469Z" fill="#BE202E"/>
<path d="M30.5742 21.471H30.6492C30.7572 21.471 30.8652 21.471 30.9672 21.459C30.8412 21.459 30.7092 21.459 30.5757 21.468L30.5742 21.471Z" fill="#BE202E"/>
<path opacity="0.35" d="M30.5742 21.471H30.6492C30.7572 21.471 30.8652 21.471 30.9672 21.459C30.8412 21.459 30.7092 21.459 30.5757 21.468L30.5742 21.471Z" fill="#BE202E"/>
<path d="M29.6261 15.1365C30.1121 14.4845 30.5961 13.8485 31.0781 13.2285C31.5791 12.5865 32.0861 11.9715 32.5976 11.373C32.6276 11.3355 32.6591 11.2995 32.6876 11.2695C33.1886 10.686 33.6866 10.128 34.1876 9.59403L33.2876 7.06653C33.1811 7.16703 33.0671 7.26753 32.9516 7.37403C32.5271 7.76853 32.0831 8.19453 31.6256 8.65053C31.1096 9.16503 30.5756 9.71103 30.0296 10.287C29.5271 10.821 29.0126 11.385 28.4951 11.9655C28.0556 12.4665 27.6146 12.975 27.1721 13.5015L27.1211 13.56L28.2716 16.9965C28.7291 16.377 29.1776 15.75 29.6261 15.1365Z" fill="url(#paint10_linear_441_12)"/>
<path d="M19.5941 32.1C19.2941 32.655 18.9941 33.225 18.6866 33.813C18.6866 33.8205 18.6761 33.828 18.6746 33.8355C18.6296 33.921 18.5846 33.9975 18.5471 34.083C18.3401 34.476 18.1631 34.833 17.7461 35.637C18.2362 36.0646 18.5877 36.6286 18.7556 37.257C18.8213 36.5645 18.6123 35.8739 18.1736 35.334C20.5106 35.784 22.6331 35.484 23.9276 33.9165C24.0401 33.7755 24.1526 33.6255 24.2591 33.4665C23.9549 33.7463 23.5806 33.9384 23.176 34.0224C22.7713 34.1064 22.3515 34.0792 21.9611 33.9435C23.3549 33.6464 24.6094 32.8919 25.5251 31.8C25.7366 31.548 25.9511 31.272 26.1716 30.963C25.4739 31.5359 24.6388 31.9168 23.7487 32.0678C22.8587 32.2188 21.9447 32.1348 21.0971 31.824L19.7651 31.7775C19.7081 31.8915 19.6496 31.992 19.5941 32.1Z" fill="url(#paint11_linear_441_12)"/>
<path d="M20.6363 29.25C21.0293 28.5585 21.4298 27.861 21.8363 27.15C22.2263 26.475 22.6238 25.8 23.0363 25.122C23.4488 24.444 23.8598 23.763 24.2753 23.0835C24.6908 22.404 25.1348 21.705 25.5758 21.021C26.0168 20.337 26.4563 19.671 26.8943 19.002C27.0548 18.759 27.2138 18.525 27.3818 18.2835C27.6578 17.8755 27.9428 17.4675 28.2263 17.061C28.2383 17.0385 28.2578 17.016 28.2698 16.992L27.1343 13.566C27.1035 13.6078 27.0699 13.6473 27.0338 13.6845C26.5688 14.2485 26.0948 14.8185 25.6328 15.408C25.1708 15.9975 24.6998 16.608 24.2423 17.2335C23.8568 17.7585 23.4803 18.2835 23.1023 18.8205C23.0288 18.9255 22.9523 19.0395 22.8803 19.146C22.4303 19.8195 21.9938 20.4795 21.6098 21.114C21.1718 21.831 20.7788 22.5225 20.4263 23.1765C20.1968 23.6085 19.9763 24.0255 19.7768 24.429C19.6103 24.771 19.4513 25.1205 19.2923 25.464C18.9233 26.274 18.5963 27.0915 18.3008 27.9135L19.4573 31.3635C19.7573 30.816 20.0663 30.2715 20.3738 29.7135C20.4563 29.565 20.5493 29.412 20.6363 29.25Z" fill="url(#paint12_linear_441_12)"/>
<path d="M18.2559 28.029C17.9021 29.0148 17.61 30.0218 17.3814 31.0439C17.3814 31.0769 17.3619 31.116 17.3574 31.149C16.939 30.4253 16.3861 29.7884 15.7284 29.2725C16.5074 30.6305 16.9233 32.1664 16.9359 33.732C16.2217 33.6896 15.5302 33.465 14.9274 33.0795C15.3412 33.649 15.8923 34.1046 16.5294 34.404C15.5933 34.4453 14.6866 34.7437 13.9089 35.2665C14.87 34.9444 15.9039 34.9085 16.8849 35.1629C15.3009 38.1479 13.6809 41.4675 12.0234 45C12.1839 44.9781 12.3364 44.9168 12.4673 44.8215C12.5982 44.7262 12.7034 44.5999 12.7734 44.4539C13.0734 43.8149 15.0384 39.615 17.9529 34.146C18.0339 33.996 18.1224 33.8385 18.2049 33.675C18.2289 33.6285 18.2499 33.5895 18.2739 33.5445C18.5819 32.9745 18.9004 32.3895 19.2294 31.7895C19.3074 31.6515 19.3794 31.5195 19.4559 31.3815V31.374L18.2994 27.924C18.2816 27.9575 18.2671 27.9927 18.2559 28.029Z" fill="url(#paint13_linear_441_12)"/>
<path d="M28.4926 17.316C28.4296 17.406 28.3756 17.49 28.3126 17.58C28.1311 17.853 27.9421 18.1245 27.7591 18.405C27.5761 18.6855 27.3526 19.0185 27.1396 19.3365C27.0331 19.4955 26.9266 19.6545 26.8186 19.821C26.4961 20.3145 26.1721 20.8245 25.8376 21.348C25.4266 21.9945 25.0126 22.665 24.5851 23.367C24.1801 24.0315 23.7616 24.726 23.3416 25.4385C22.9426 26.1195 22.5331 26.817 22.1176 27.5385C21.7486 28.1835 21.3766 28.851 20.9926 29.535C20.9716 29.565 20.9581 29.604 20.9371 29.6355C20.5636 30.312 20.1781 31.0125 19.7896 31.7355C19.7782 31.749 19.77 31.7648 19.7656 31.782L21.0976 31.8285C21.0751 31.8165 21.0496 31.8135 21.0181 31.8C22.9959 31.6921 24.8893 30.963 26.4286 29.7165C27.1926 29.0932 27.8813 28.3829 28.4806 27.6C29.0031 26.9225 29.482 26.2126 29.9146 25.4745C30.3226 24.786 30.7336 24.0315 31.1371 23.2095C30.7195 23.348 30.2851 23.4298 29.8456 23.4525L29.5936 23.466C29.5096 23.466 29.4271 23.466 29.3356 23.466C30.7839 23.1083 32.0356 22.2 32.8246 20.934C32.237 21.2179 31.6027 21.3928 30.9526 21.45C30.8506 21.4605 30.7426 21.4605 30.6346 21.462C30.6106 21.462 30.5851 21.462 30.5521 21.462C31.0457 21.3429 31.522 21.1615 31.9696 20.922C32.0574 20.8769 32.1426 20.8268 32.2246 20.772C32.3536 20.691 32.4736 20.601 32.5951 20.511C32.6716 20.448 32.7451 20.391 32.8216 20.328C32.9984 20.1745 33.162 20.0064 33.3106 19.8255C33.3616 19.767 33.4096 19.716 33.4516 19.6545C33.5146 19.5645 33.5761 19.482 33.6301 19.398C33.8926 19.0215 34.1101 18.678 34.2886 18.372C34.3771 18.222 34.4566 18.081 34.5256 17.949C34.5496 17.895 34.5811 17.8485 34.6066 17.799C34.6786 17.649 34.7476 17.52 34.7971 17.403C34.8581 17.2669 34.9116 17.1277 34.9576 16.986C34.8987 17.0226 34.8358 17.0523 34.7701 17.0745C34.1593 17.2883 33.5195 17.4077 32.8726 17.4285C32.8686 17.4266 32.8643 17.4256 32.8599 17.4256C32.8555 17.4256 32.8511 17.4266 32.8471 17.4285C32.7832 17.4251 32.7191 17.4251 32.6551 17.4285C32.6641 17.4285 32.6806 17.4285 32.6896 17.4165L28.5046 17.2665C28.5121 17.2935 28.5016 17.3085 28.4926 17.316Z" fill="url(#paint14_linear_441_12)"/>
<path d="M34.3494 9.67798C33.8994 10.1865 33.4074 10.77 32.8704 11.424C32.8401 11.4567 32.8125 11.4918 32.7879 11.529C32.3214 12.1005 31.8309 12.729 31.3044 13.4235C30.8544 14.0235 30.3744 14.6595 29.8734 15.3585C29.4354 15.9585 28.9929 16.602 28.5234 17.28L32.7084 17.43C33.6696 17.2042 34.5439 16.7027 35.2239 15.987C35.3904 15.8115 35.5599 15.621 35.7309 15.4215C36.2663 14.8067 36.7705 14.1654 37.2414 13.5C37.6741 12.896 38.0747 12.2696 38.4414 11.6235C38.6342 11.287 38.8099 10.9411 38.9679 10.587C39.0834 10.3125 39.1794 10.053 39.2679 9.79948C37.6274 9.84158 35.9859 9.80103 34.3494 9.67798Z" fill="url(#paint15_linear_441_12)"/>
<path d="M29.6057 23.4825C29.5217 23.4825 29.4392 23.4825 29.3477 23.4825C29.4336 23.4778 29.5197 23.4778 29.6057 23.4825Z" fill="#BE202E"/>
<path opacity="0.35" d="M29.6057 23.4825C29.5217 23.4825 29.4392 23.4825 29.3477 23.4825C29.4336 23.4778 29.5197 23.4778 29.6057 23.4825Z" fill="#BE202E"/>
<path d="M29.6057 23.4825C29.5217 23.4825 29.4392 23.4825 29.3477 23.4825C29.4336 23.4778 29.5197 23.4778 29.6057 23.4825Z" fill="url(#paint16_linear_441_12)"/>
<defs>
<linearGradient id="paint0_linear_441_12" x1="8.14366" y1="3.4357" x2="13.3692" y2="-3.19343" gradientUnits="userSpaceOnUse">
<stop stop-color="#F69923"/>
<stop offset="0.312" stop-color="#F79A23"/>
<stop offset="0.838" stop-color="#E97826"/>
</linearGradient>
<linearGradient id="paint1_linear_441_12" x1="15.3295" y1="43.4034" x2="7.71699" y2="5.00979" gradientUnits="userSpaceOnUse">
<stop offset="0.323" stop-color="#9E2064"/>
<stop offset="0.63" stop-color="#C92037"/>
<stop offset="0.751" stop-color="#CD2335"/>
<stop offset="1" stop-color="#E97826"/>
</linearGradient>
<linearGradient id="paint2_linear_441_12" x1="18.2684" y1="38.0037" x2="13.7321" y2="15.125" gradientUnits="userSpaceOnUse">
<stop stop-color="#282662"/>
<stop offset="0.095" stop-color="#662E8D"/>
<stop offset="0.788" stop-color="#9F2064"/>
<stop offset="0.949" stop-color="#CD2032"/>
</linearGradient>
<linearGradient id="paint3_linear_441_12" x1="14.5459" y1="41.3173" x2="6.93339" y2="2.92367" gradientUnits="userSpaceOnUse">
<stop offset="0.323" stop-color="#9E2064"/>
<stop offset="0.63" stop-color="#C92037"/>
<stop offset="0.751" stop-color="#CD2335"/>
<stop offset="1" stop-color="#E97826"/>
</linearGradient>
<linearGradient id="paint4_linear_441_12" x1="14.5184" y1="38.4129" x2="10.5178" y2="18.236" gradientUnits="userSpaceOnUse">
<stop stop-color="#282662"/>
<stop offset="0.095" stop-color="#662E8D"/>
<stop offset="0.788" stop-color="#9F2064"/>
<stop offset="0.949" stop-color="#CD2032"/>
</linearGradient>
<linearGradient id="paint5_linear_441_12" x1="18.5193" y1="40.5295" x2="10.9067" y2="2.13591" gradientUnits="userSpaceOnUse">
<stop offset="0.323" stop-color="#9E2064"/>
<stop offset="0.63" stop-color="#C92037"/>
<stop offset="0.751" stop-color="#CD2335"/>
<stop offset="1" stop-color="#E97826"/>
</linearGradient>
<linearGradient id="paint6_linear_441_12" x1="18.7989" y1="42.9495" x2="11.1864" y2="4.55587" gradientUnits="userSpaceOnUse">
<stop offset="0.323" stop-color="#9E2064"/>
<stop offset="0.63" stop-color="#C92037"/>
<stop offset="0.751" stop-color="#CD2335"/>
<stop offset="1" stop-color="#E97826"/>
</linearGradient>
<linearGradient id="paint7_linear_441_12" x1="19.709" y1="40.2936" x2="12.0964" y2="1.90004" gradientUnits="userSpaceOnUse">
<stop offset="0.323" stop-color="#9E2064"/>
<stop offset="0.63" stop-color="#C92037"/>
<stop offset="0.751" stop-color="#CD2335"/>
<stop offset="1" stop-color="#E97826"/>
</linearGradient>
<linearGradient id="paint8_linear_441_12" x1="19.5727" y1="40.3213" x2="11.9602" y2="1.92767" gradientUnits="userSpaceOnUse">
<stop offset="0.323" stop-color="#9E2064"/>
<stop offset="0.63" stop-color="#C92037"/>
<stop offset="0.751" stop-color="#CD2335"/>
<stop offset="1" stop-color="#E97826"/>
</linearGradient>
<linearGradient id="paint9_linear_441_12" x1="31.2568" y1="5.97635" x2="40.7653" y2="4.79465" gradientUnits="userSpaceOnUse">
<stop stop-color="#F69923"/>
<stop offset="0.312" stop-color="#F79A23"/>
<stop offset="0.838" stop-color="#E97826"/>
</linearGradient>
<linearGradient id="paint10_linear_441_12" x1="5.16213" y1="43.9759" x2="29.6546" y2="6.9062" gradientUnits="userSpaceOnUse">
<stop offset="0.323" stop-color="#9E2064"/>
<stop offset="0.63" stop-color="#C92037"/>
<stop offset="0.751" stop-color="#CD2335"/>
<stop offset="1" stop-color="#E97826"/>
</linearGradient>
<linearGradient id="paint11_linear_441_12" x1="11.8441" y1="41.9625" x2="26.4393" y2="19.8725" gradientUnits="userSpaceOnUse">
<stop stop-color="#282662"/>
<stop offset="0.095" stop-color="#662E8D"/>
<stop offset="0.788" stop-color="#9F2064"/>
<stop offset="0.949" stop-color="#CD2032"/>
</linearGradient>
<linearGradient id="paint12_linear_441_12" x1="6.19506" y1="41.6677" x2="30.6875" y2="4.59797" gradientUnits="userSpaceOnUse">
<stop offset="0.323" stop-color="#9E2064"/>
<stop offset="0.63" stop-color="#C92037"/>
<stop offset="0.751" stop-color="#CD2335"/>
<stop offset="1" stop-color="#E97826"/>
</linearGradient>
<linearGradient id="paint13_linear_441_12" x1="8.4909" y1="39.2995" x2="21.3624" y2="19.8184" gradientUnits="userSpaceOnUse">
<stop stop-color="#282662"/>
<stop offset="0.095" stop-color="#662E8D"/>
<stop offset="0.788" stop-color="#9F2064"/>
<stop offset="0.949" stop-color="#CD2032"/>
</linearGradient>
<linearGradient id="paint14_linear_441_12" x1="10.0335" y1="44.2022" x2="34.526" y2="7.13246" gradientUnits="userSpaceOnUse">
<stop offset="0.323" stop-color="#9E2064"/>
<stop offset="0.63" stop-color="#C92037"/>
<stop offset="0.751" stop-color="#CD2335"/>
<stop offset="1" stop-color="#E97826"/>
</linearGradient>
<linearGradient id="paint15_linear_441_12" x1="8.32598" y1="46.3789" x2="32.8185" y2="9.30919" gradientUnits="userSpaceOnUse">
<stop offset="0.323" stop-color="#9E2064"/>
<stop offset="0.63" stop-color="#C92037"/>
<stop offset="0.751" stop-color="#CD2335"/>
<stop offset="1" stop-color="#E97826"/>
</linearGradient>
<linearGradient id="paint16_linear_441_12" x1="11.1796" y1="44.9615" x2="35.672" y2="7.89166" gradientUnits="userSpaceOnUse">
<stop offset="0.323" stop-color="#9E2064"/>
<stop offset="0.63" stop-color="#C92037"/>
<stop offset="0.751" stop-color="#CD2335"/>
<stop offset="1" stop-color="#E97826"/>
</linearGradient>
</defs>
</svg>
