<svg width="48" height="47" viewBox="0 0 48 47" fill="none" xmlns="http://www.w3.org/2000/svg">
<g clip-path="url(#clip0_441_63)">
<path d="M40.5819 12.3625C38.5754 12.3625 36.7565 13.1599 35.4211 14.4532L26.9533 8.39273C27.0061 8.17141 27.0371 7.94165 27.0371 7.70402C27.0371 6.06592 25.7084 4.73779 24.0693 4.73779C22.4304 4.73779 21.1016 6.06592 21.1016 7.70402C21.1016 9.34231 22.4304 10.6703 24.0693 10.6703C24.6432 10.6703 25.1773 10.5046 25.6314 10.2227L35.9971 17.7624C36.8053 16.0776 38.5876 14.7658 40.5819 14.7658C43.3514 14.7658 45.5967 17.0098 45.5967 19.7779C45.5967 21.99 44.1629 23.8674 42.1736 24.5323L42.854 26.8391C45.8401 25.88 48.0011 23.0813 48.0011 19.7779C48.0011 15.6826 44.6795 12.3625 40.5819 12.3625Z" fill="#0A7BFF"/>
<path d="M16.7923 5.15907C16.1865 7.06534 16.3955 9.03458 17.2222 10.694L8.90098 16.9095C8.70636 16.7925 8.49711 16.6938 8.27117 16.622C6.71305 16.1273 5.04861 16.9888 4.5538 18.5461C4.0588 20.1034 4.92073 21.767 6.47867 22.2616C8.0368 22.7563 9.70123 21.895 10.1962 20.3377C10.3695 19.7923 10.3732 19.235 10.2422 18.7185L20.5438 11.1461C19.1854 9.86947 18.4759 7.77972 19.0779 5.88488C19.9144 3.25335 22.7269 1.7976 25.3597 2.63361C27.4637 3.30152 28.8163 5.23084 28.8482 7.3219L31.2476 7.37193C31.2371 4.2451 29.2277 1.34652 26.0857 0.348968C22.1906 -0.887711 18.0296 1.26575 16.7923 5.15907Z" fill="#EB3D00"/>
<path d="M3.04953 25.2035C4.66391 26.381 6.59216 26.812 8.42028 26.5637L11.703 36.3694C11.5317 36.5151 11.373 36.6804 11.2345 36.8698C10.2801 38.1771 10.5756 40.0167 11.8945 40.9785C13.2133 41.9404 15.0561 41.6602 16.0105 40.3529C16.965 39.0456 16.6695 37.2062 15.3507 36.2443C14.8888 35.9075 14.3627 35.7263 13.8332 35.6849L9.88466 23.5847C8.25284 24.4551 6.05441 24.456 4.44959 23.2857C2.22116 21.6603 1.72184 18.552 3.33453 16.3429C4.62341 14.5776 6.87078 13.9207 8.85884 14.5573L9.65534 12.3173C6.69378 11.3302 3.32422 12.2957 1.39972 14.9317C-0.986218 18.2001 -0.247656 22.799 3.04953 25.2035Z" fill="#00BCD4"/>
<path d="M41.0335 36.7274C40.4223 34.8365 39.1118 33.3661 37.4787 32.5035L40.6467 22.6666C40.8727 22.6486 41.1001 22.6074 41.3253 22.5347C42.8789 22.033 43.7335 20.3739 43.2344 18.8293C42.7351 17.2844 41.0708 16.4388 39.5172 16.9405C37.9636 17.442 37.1088 19.1011 37.6081 20.6459C37.783 21.1867 38.1027 21.6393 38.5083 21.9809L34.5157 34.0599C36.3597 34.3055 38.1468 35.5836 38.7543 37.4633C39.598 40.0736 38.1537 42.877 35.5285 43.7247C33.4306 44.4021 31.2132 43.6257 29.9767 41.9542L27.9961 43.3021C29.8154 45.8226 33.1282 47.0025 36.2609 45.9909C40.145 44.7368 42.2817 40.5894 41.0335 36.7274Z" fill="#86C351"/>
<path d="M18.0505 44.6622C19.66 43.4851 20.6511 41.7784 20.963 39.9574L31.3152 39.8519C31.403 40.0603 31.513 40.2629 31.6525 40.4535C32.6146 41.7678 34.4603 42.0535 35.7753 41.0922C37.0902 40.1306 37.3761 38.2858 36.4143 36.9715C35.4522 35.6573 33.6065 35.3713 32.2915 36.3329C31.8312 36.6696 31.4999 37.1154 31.3011 37.6081L18.5575 37.6406C18.8986 39.4662 18.2391 41.5642 16.6392 42.7342C14.4173 44.359 11.2983 43.8759 9.67264 41.6551C8.37364 39.8804 8.42145 37.5332 9.6267 35.8327L7.7262 34.3812C5.89395 36.9024 5.80395 40.4154 7.74364 43.0655C10.1487 46.3513 14.7633 47.066 18.0505 44.6622Z" fill="#9032E9"/>
</g>
<defs>
<clipPath id="clip0_441_63">
<rect width="48" height="46.4762" fill="white"/>
</clipPath>
</defs>
</svg>
