<svg width="1003" height="729" viewBox="0 0 1003 729" fill="none" xmlns="http://www.w3.org/2000/svg">
<g clip-path="url(#clip0_434_72)">
<path d="M584.246 128.514C603.044 128.514 618.283 113.285 618.283 94.5C618.283 75.7145 603.044 60.4858 584.246 60.4858C565.448 60.4858 550.209 75.7145 550.209 94.5C550.209 113.285 565.448 128.514 584.246 128.514Z" fill="#F2F2F2"/>
<path d="M848.28 633.323C898.872 594.814 923.036 530.104 907.908 468.375C907.532 466.841 907.136 465.311 906.718 463.784C896.689 427.142 871.877 392.317 835.714 380.609C805.35 370.779 772.207 378.338 740.53 374.429C678.345 366.755 630.135 316.474 596.214 263.83C562.292 211.185 536.221 152.257 491.146 108.765C416.848 37.0759 295.648 21.6411 203.529 68.3055C111.409 114.97 52.7298 218.499 55.2323 321.678C57.7349 424.858 119.029 523.505 208.043 575.844C240.743 595.07 278.564 608.691 316.203 603.925C348.863 599.789 378.538 582.253 411.043 577.046C462.15 568.861 512.93 591.952 557.133 618.861C601.336 645.769 644.033 677.664 694.264 690.138C743.038 702.251 803.464 667.435 848.28 633.323Z" fill="#F2F2F2"/>
<path d="M775.592 70.4722C774.483 69.7334 773.361 69.0327 772.252 68.3193C740.193 47.8296 705.832 31.184 669.877 18.7263L661.54 133.658H608.689V1.94907C605.362 1.26116 602.009 0.611473 598.656 0V133.658H535.849C501.273 133.658 468.114 119.932 443.665 95.4991C419.216 71.0665 405.481 37.9289 405.481 3.37599C402.115 4.10211 398.775 4.87908 395.435 5.70711V133.658H344.28L336.338 24.064C299.389 38.2251 264.311 56.8476 231.885 79.517C231.324 79.8991 230.763 80.294 230.215 80.6762C227.398 82.6507 224.619 84.6635 221.853 86.7018V525.166H372.617L369.953 488.286L355.294 285.8H650.513L635.854 488.286L633.189 525.166H782.284V74.9054C780.066 73.4023 777.835 71.9245 775.592 70.4722ZM395.436 252.36H352.872L345.006 143.696H395.436V252.36ZM598.656 252.36H527.168V250.207C527.168 249.172 526.964 248.147 526.568 247.191C526.171 246.235 525.589 245.367 524.857 244.636C524.124 243.904 523.254 243.325 522.296 242.93C521.339 242.535 520.313 242.333 519.278 242.334H488.199C487.165 242.334 486.14 242.537 485.184 242.933C484.228 243.328 483.359 243.908 482.628 244.639C481.896 245.37 481.316 246.238 480.92 247.194C480.524 248.149 480.321 249.173 480.321 250.207V252.36H405.481V143.696H598.656V252.36ZM608.689 252.36V143.696H660.813L652.948 252.36H608.689Z" fill="#3F3D56"/>
<path d="M0 553.244C11.0741 566.357 23.052 578.68 35.846 590.123L967.154 591.397C979.948 579.954 991.926 567.63 1003 554.518L0 553.244Z" fill="#3F3D56"/>
<path d="M631.55 435.154V544.332C631.551 545.723 632.105 547.058 633.089 548.041C634.074 549.025 635.409 549.578 636.801 549.579H798.7C800.092 549.578 801.427 549.025 802.412 548.041C803.396 547.058 803.95 545.723 803.951 544.332V435.154C803.948 433.764 803.393 432.431 802.409 431.449C801.425 430.467 800.091 429.914 798.7 429.912H636.801C635.41 429.914 634.076 430.467 633.092 431.449C632.108 432.431 631.554 433.764 631.55 435.154Z" fill="#3F3D56"/>
<path d="M635.348 436.512V542.985C635.349 543.729 635.645 544.441 636.171 544.967C636.697 545.493 637.411 545.788 638.154 545.79H797.352C798.096 545.788 798.809 545.493 799.335 544.967C799.861 544.441 800.157 543.729 800.159 542.985V436.512C800.158 435.768 799.863 435.054 799.337 434.527C798.811 434 798.097 433.704 797.352 433.702H638.154C637.41 433.704 636.696 434 636.17 434.527C635.644 435.054 635.348 435.768 635.348 436.512Z" fill="black"/>
<path d="M628.164 565.625C628.461 565.996 628.838 566.296 629.267 566.501C629.696 566.706 630.166 566.812 630.641 566.809H803.997C804.472 566.809 804.939 566.703 805.367 566.498C805.795 566.294 806.172 565.998 806.471 565.63C806.77 565.262 806.982 564.832 807.094 564.371C807.205 563.911 807.213 563.431 807.116 562.968L804.425 550.194C804.313 549.673 804.073 549.188 803.726 548.784C803.379 548.379 802.936 548.068 802.438 547.878C802.078 547.737 801.694 547.664 801.306 547.665H633.322C632.934 547.664 632.55 547.737 632.19 547.878C631.692 548.068 631.249 548.379 630.902 548.784C630.555 549.188 630.315 549.673 630.204 550.194L627.513 562.968C627.417 563.431 627.426 563.91 627.538 564.37C627.651 564.829 627.865 565.258 628.164 565.625Z" fill="#2F2E41"/>
<path d="M795.358 553.167H799.453C799.797 553.167 800.075 552.888 800.075 552.545V550.587C800.075 550.244 799.797 549.965 799.453 549.965H795.358C795.015 549.965 794.736 550.244 794.736 550.587V552.545C794.736 552.888 795.015 553.167 795.358 553.167Z" fill="#3F3D56"/>
<path d="M784.679 553.167H788.774C789.118 553.167 789.396 552.888 789.396 552.545V550.587C789.396 550.244 789.118 549.965 788.774 549.965H784.679C784.336 549.965 784.057 550.244 784.057 550.587V552.545C784.057 552.888 784.336 553.167 784.679 553.167Z" fill="#3F3D56"/>
<path d="M774.001 553.167H778.095C778.439 553.167 778.718 552.888 778.718 552.545V550.587C778.718 550.244 778.439 549.965 778.095 549.965H774.001C773.657 549.965 773.379 550.244 773.379 550.587V552.545C773.379 552.888 773.657 553.167 774.001 553.167Z" fill="#3F3D56"/>
<path d="M763.323 553.167H767.417C767.761 553.167 768.04 552.888 768.04 552.545V550.587C768.04 550.244 767.761 549.965 767.417 549.965H763.323C762.979 549.965 762.7 550.244 762.7 550.587V552.545C762.7 552.888 762.979 553.167 763.323 553.167Z" fill="#3F3D56"/>
<path d="M752.644 553.167H756.739C757.082 553.167 757.361 552.888 757.361 552.545V550.587C757.361 550.244 757.082 549.965 756.739 549.965H752.644C752.3 549.965 752.022 550.244 752.022 550.587V552.545C752.022 552.888 752.3 553.167 752.644 553.167Z" fill="#3F3D56"/>
<path d="M741.966 553.167H746.06C746.404 553.167 746.683 552.888 746.683 552.545V550.587C746.683 550.244 746.404 549.965 746.06 549.965H741.966C741.622 549.965 741.343 550.244 741.343 550.587V552.545C741.343 552.888 741.622 553.167 741.966 553.167Z" fill="#3F3D56"/>
<path d="M731.287 553.167H735.382C735.725 553.167 736.004 552.888 736.004 552.545V550.587C736.004 550.244 735.725 549.965 735.382 549.965H731.287C730.943 549.965 730.665 550.244 730.665 550.587V552.545C730.665 552.888 730.943 553.167 731.287 553.167Z" fill="#3F3D56"/>
<path d="M720.608 553.167H724.703C725.047 553.167 725.325 552.888 725.325 552.545V550.587C725.325 550.244 725.047 549.965 724.703 549.965H720.608C720.265 549.965 719.986 550.244 719.986 550.587V552.545C719.986 552.888 720.265 553.167 720.608 553.167Z" fill="#3F3D56"/>
<path d="M709.93 553.167H714.024C714.368 553.167 714.646 552.888 714.646 552.545V550.587C714.646 550.244 714.368 549.965 714.024 549.965H709.93C709.586 549.965 709.307 550.244 709.307 550.587V552.545C709.307 552.888 709.586 553.167 709.93 553.167Z" fill="#3F3D56"/>
<path d="M699.251 553.167H703.346C703.69 553.167 703.968 552.888 703.968 552.545V550.587C703.968 550.244 703.69 549.965 703.346 549.965H699.251C698.908 549.965 698.629 550.244 698.629 550.587V552.545C698.629 552.888 698.908 553.167 699.251 553.167Z" fill="#3F3D56"/>
<path d="M688.573 553.167H692.667C693.011 553.167 693.29 552.888 693.29 552.545V550.587C693.29 550.244 693.011 549.965 692.667 549.965H688.573C688.229 549.965 687.95 550.244 687.95 550.587V552.545C687.95 552.888 688.229 553.167 688.573 553.167Z" fill="#3F3D56"/>
<path d="M677.894 553.167H681.988C682.332 553.167 682.611 552.888 682.611 552.545V550.587C682.611 550.244 682.332 549.965 681.988 549.965H677.894C677.55 549.965 677.271 550.244 677.271 550.587V552.545C677.271 552.888 677.55 553.167 677.894 553.167Z" fill="#3F3D56"/>
<path d="M667.216 553.167H671.31C671.654 553.167 671.933 552.888 671.933 552.545V550.587C671.933 550.244 671.654 549.965 671.31 549.965H667.216C666.872 549.965 666.593 550.244 666.593 550.587V552.545C666.593 552.888 666.872 553.167 667.216 553.167Z" fill="#3F3D56"/>
<path d="M656.537 553.167H660.632C660.975 553.167 661.254 552.888 661.254 552.545V550.587C661.254 550.244 660.975 549.965 660.632 549.965H656.537C656.193 549.965 655.915 550.244 655.915 550.587V552.545C655.915 552.888 656.193 553.167 656.537 553.167Z" fill="#3F3D56"/>
<path d="M645.858 553.167H649.953C650.297 553.167 650.575 552.888 650.575 552.545V550.587C650.575 550.244 650.297 549.965 649.953 549.965H645.858C645.515 549.965 645.236 550.244 645.236 550.587V552.545C645.236 552.888 645.515 553.167 645.858 553.167Z" fill="#3F3D56"/>
<path d="M635.18 553.167H639.274C639.618 553.167 639.896 552.888 639.896 552.545V550.587C639.896 550.244 639.618 549.965 639.274 549.965H635.18C634.836 549.965 634.557 550.244 634.557 550.587V552.545C634.557 552.888 634.836 553.167 635.18 553.167Z" fill="#3F3D56"/>
<path d="M795.484 558.502H799.579C799.923 558.502 800.201 558.224 800.201 557.88V555.923C800.201 555.579 799.923 555.301 799.579 555.301H795.484C795.14 555.301 794.862 555.579 794.862 555.923V557.88C794.862 558.224 795.14 558.502 795.484 558.502Z" fill="#3F3D56"/>
<path d="M784.806 558.502H788.901C789.244 558.502 789.523 558.224 789.523 557.88V555.923C789.523 555.579 789.244 555.301 788.901 555.301H784.806C784.462 555.301 784.184 555.579 784.184 555.923V557.88C784.184 558.224 784.462 558.502 784.806 558.502Z" fill="#3F3D56"/>
<path d="M774.127 558.502H778.222C778.566 558.502 778.844 558.224 778.844 557.88V555.923C778.844 555.579 778.566 555.301 778.222 555.301H774.127C773.784 555.301 773.505 555.579 773.505 555.923V557.88C773.505 558.224 773.784 558.502 774.127 558.502Z" fill="#3F3D56"/>
<path d="M763.449 558.502H767.543C767.887 558.502 768.166 558.224 768.166 557.88V555.923C768.166 555.579 767.887 555.301 767.543 555.301H763.449C763.105 555.301 762.826 555.579 762.826 555.923V557.88C762.826 558.224 763.105 558.502 763.449 558.502Z" fill="#3F3D56"/>
<path d="M752.77 558.502H756.865C757.209 558.502 757.487 558.224 757.487 557.88V555.923C757.487 555.579 757.209 555.301 756.865 555.301H752.77C752.427 555.301 752.148 555.579 752.148 555.923V557.88C752.148 558.224 752.427 558.502 752.77 558.502Z" fill="#3F3D56"/>
<path d="M742.092 558.502H746.186C746.53 558.502 746.809 558.224 746.809 557.88V555.923C746.809 555.579 746.53 555.301 746.186 555.301H742.092C741.748 555.301 741.469 555.579 741.469 555.923V557.88C741.469 558.224 741.748 558.502 742.092 558.502Z" fill="#3F3D56"/>
<path d="M731.413 558.502H735.508C735.851 558.502 736.13 558.224 736.13 557.88V555.923C736.13 555.579 735.851 555.301 735.508 555.301H731.413C731.069 555.301 730.791 555.579 730.791 555.923V557.88C730.791 558.224 731.069 558.502 731.413 558.502Z" fill="#3F3D56"/>
<path d="M720.734 558.502H724.829C725.173 558.502 725.451 558.224 725.451 557.88V555.923C725.451 555.579 725.173 555.301 724.829 555.301H720.734C720.39 555.301 720.112 555.579 720.112 555.923V557.88C720.112 558.224 720.39 558.502 720.734 558.502Z" fill="#3F3D56"/>
<path d="M710.056 558.502H714.151C714.494 558.502 714.773 558.224 714.773 557.88V555.923C714.773 555.579 714.494 555.301 714.151 555.301H710.056C709.712 555.301 709.434 555.579 709.434 555.923V557.88C709.434 558.224 709.712 558.502 710.056 558.502Z" fill="#3F3D56"/>
<path d="M699.377 558.502H703.472C703.816 558.502 704.094 558.224 704.094 557.88V555.923C704.094 555.579 703.816 555.301 703.472 555.301H699.377C699.034 555.301 698.755 555.579 698.755 555.923V557.88C698.755 558.224 699.034 558.502 699.377 558.502Z" fill="#3F3D56"/>
<path d="M688.699 558.502H692.793C693.137 558.502 693.416 558.224 693.416 557.88V555.923C693.416 555.579 693.137 555.301 692.793 555.301H688.699C688.355 555.301 688.076 555.579 688.076 555.923V557.88C688.076 558.224 688.355 558.502 688.699 558.502Z" fill="#3F3D56"/>
<path d="M678.02 558.502H682.115C682.459 558.502 682.737 558.224 682.737 557.88V555.923C682.737 555.579 682.459 555.301 682.115 555.301H678.02C677.677 555.301 677.398 555.579 677.398 555.923V557.88C677.398 558.224 677.677 558.502 678.02 558.502Z" fill="#3F3D56"/>
<path d="M667.342 558.502H671.436C671.78 558.502 672.059 558.224 672.059 557.88V555.923C672.059 555.579 671.78 555.301 671.436 555.301H667.342C666.998 555.301 666.719 555.579 666.719 555.923V557.88C666.719 558.224 666.998 558.502 667.342 558.502Z" fill="#3F3D56"/>
<path d="M656.663 558.502H660.758C661.101 558.502 661.38 558.224 661.38 557.88V555.923C661.38 555.579 661.101 555.301 660.758 555.301H656.663C656.319 555.301 656.041 555.579 656.041 555.923V557.88C656.041 558.224 656.319 558.502 656.663 558.502Z" fill="#3F3D56"/>
<path d="M645.984 558.502H650.079C650.423 558.502 650.701 558.224 650.701 557.88V555.923C650.701 555.579 650.423 555.301 650.079 555.301H645.984C645.64 555.301 645.362 555.579 645.362 555.923V557.88C645.362 558.224 645.64 558.502 645.984 558.502Z" fill="#3F3D56"/>
<path d="M635.306 558.502H639.401C639.744 558.502 640.023 558.224 640.023 557.88V555.923C640.023 555.579 639.744 555.301 639.401 555.301H635.306C634.962 555.301 634.684 555.579 634.684 555.923V557.88C634.684 558.224 634.962 558.502 635.306 558.502Z" fill="#3F3D56"/>
<path d="M706.852 564.905H748.322C748.666 564.905 748.944 564.627 748.944 564.283V562.326C748.944 561.982 748.666 561.704 748.322 561.704H706.852C706.509 561.704 706.23 561.982 706.23 562.326V564.283C706.23 564.627 706.509 564.905 706.852 564.905Z" fill="#3F3D56"/>
<path d="M662.917 456.996H659.292C658.193 456.996 657.302 457.886 657.302 458.984C657.302 460.083 658.193 460.973 659.292 460.973H662.917C664.016 460.973 664.907 460.083 664.907 458.984C664.907 457.886 664.016 456.996 662.917 456.996Z" fill="white"/>
<path d="M704.375 456.996H700.75C699.651 456.996 698.76 457.886 698.76 458.984C698.76 460.083 699.651 460.973 700.75 460.973H704.375C705.474 460.973 706.365 460.083 706.365 458.984C706.365 457.886 705.474 456.996 704.375 456.996Z" fill="white"/>
<path d="M716.122 456.996H712.497C711.398 456.996 710.507 457.886 710.507 458.984C710.507 460.083 711.398 460.973 712.497 460.973H716.122C717.221 460.973 718.112 460.083 718.112 458.984C718.112 457.886 717.221 456.996 716.122 456.996Z" fill="white"/>
<path d="M693.099 456.664H670.569C669.47 456.664 668.579 457.554 668.579 458.653C668.579 459.751 669.47 460.641 670.569 460.641H693.099C694.198 460.641 695.089 459.751 695.089 458.653C695.089 457.554 694.198 456.664 693.099 456.664Z" fill="white"/>
<path d="M748.377 456.664H725.847C724.748 456.664 723.857 457.554 723.857 458.653C723.857 459.751 724.748 460.641 725.847 460.641H748.377C749.476 460.641 750.367 459.751 750.367 458.653C750.367 457.554 749.476 456.664 748.377 456.664Z" fill="white"/>
<path d="M673.972 465.972H670.347C669.248 465.972 668.357 466.863 668.357 467.961C668.357 469.059 669.248 469.95 670.347 469.95H673.972C675.071 469.95 675.962 469.059 675.962 467.961C675.962 466.863 675.071 465.972 673.972 465.972Z" fill="white"/>
<path d="M715.431 465.972H711.806C710.707 465.972 709.816 466.863 709.816 467.961C709.816 469.059 710.707 469.95 711.806 469.95H715.431C716.53 469.95 717.421 469.059 717.421 467.961C717.421 466.863 716.53 465.972 715.431 465.972Z" fill="white"/>
<path d="M727.177 465.972H723.552C722.453 465.972 721.562 466.863 721.562 467.961C721.562 469.059 722.453 469.95 723.552 469.95H727.177C728.276 469.95 729.167 469.059 729.167 467.961C729.167 466.863 728.276 465.972 727.177 465.972Z" fill="white"/>
<path d="M704.154 465.641H681.624C680.525 465.641 679.634 466.531 679.634 467.63C679.634 468.728 680.525 469.618 681.624 469.618H704.154C705.253 469.618 706.144 468.728 706.144 467.63C706.144 466.531 705.253 465.641 704.154 465.641Z" fill="white"/>
<path d="M759.433 465.641H736.903C735.804 465.641 734.913 466.531 734.913 467.63C734.913 468.728 735.804 469.618 736.903 469.618H759.433C760.532 469.618 761.423 468.728 761.423 467.63C761.423 466.531 760.532 465.641 759.433 465.641Z" fill="white"/>
<path d="M685.028 474.949H681.403C680.304 474.949 679.413 475.84 679.413 476.938C679.413 478.036 680.304 478.927 681.403 478.927H685.028C686.127 478.927 687.018 478.036 687.018 476.938C687.018 475.84 686.127 474.949 685.028 474.949Z" fill="white"/>
<path d="M726.487 474.949H722.862C721.762 474.949 720.872 475.84 720.872 476.938C720.872 478.036 721.762 478.927 722.862 478.927H726.487C727.586 478.927 728.477 478.036 728.477 476.938C728.477 475.84 727.586 474.949 726.487 474.949Z" fill="white"/>
<path d="M738.233 474.949H734.608C733.509 474.949 732.618 475.84 732.618 476.938C732.618 478.036 733.509 478.927 734.608 478.927H738.233C739.332 478.927 740.223 478.036 740.223 476.938C740.223 475.84 739.332 474.949 738.233 474.949Z" fill="white"/>
<path d="M715.21 474.618H692.68C691.581 474.618 690.69 475.508 690.69 476.606C690.69 477.705 691.581 478.595 692.68 478.595H715.21C716.309 478.595 717.2 477.705 717.2 476.606C717.2 475.508 716.309 474.618 715.21 474.618Z" fill="white"/>
<path d="M770.488 474.618H747.958C746.859 474.618 745.968 475.508 745.968 476.606C745.968 477.705 746.859 478.595 747.958 478.595H770.488C771.587 478.595 772.478 477.705 772.478 476.606C772.478 475.508 771.587 474.618 770.488 474.618Z" fill="white"/>
<path d="M696.084 483.926H692.459C691.36 483.926 690.469 484.816 690.469 485.915C690.469 487.013 691.36 487.903 692.459 487.903H696.084C697.183 487.903 698.074 487.013 698.074 485.915C698.074 484.816 697.183 483.926 696.084 483.926Z" fill="white"/>
<path d="M737.542 483.926H733.917C732.818 483.926 731.927 484.816 731.927 485.915C731.927 487.013 732.818 487.903 733.917 487.903H737.542C738.641 487.903 739.532 487.013 739.532 485.915C739.532 484.816 738.641 483.926 737.542 483.926Z" fill="white"/>
<path d="M749.289 483.926H745.664C744.565 483.926 743.674 484.816 743.674 485.915C743.674 487.013 744.565 487.903 745.664 487.903H749.289C750.388 487.903 751.279 487.013 751.279 485.915C751.279 484.816 750.388 483.926 749.289 483.926Z" fill="white"/>
<path d="M726.266 483.594H703.736C702.636 483.594 701.746 484.485 701.746 485.583C701.746 486.681 702.636 487.572 703.736 487.572H726.266C727.365 487.572 728.255 486.681 728.255 485.583C728.255 484.485 727.365 483.594 726.266 483.594Z" fill="white"/>
<path d="M704.375 519.621H700.75C699.651 519.621 698.76 520.512 698.76 521.61C698.76 522.708 699.651 523.599 700.75 523.599H704.375C705.474 523.599 706.365 522.708 706.365 521.61C706.365 520.512 705.474 519.621 704.375 519.621Z" fill="white"/>
<path d="M716.122 519.621H712.497C711.398 519.621 710.507 520.512 710.507 521.61C710.507 522.708 711.398 523.599 712.497 523.599H716.122C717.221 523.599 718.112 522.708 718.112 521.61C718.112 520.512 717.221 519.621 716.122 519.621Z" fill="white"/>
<path d="M748.377 519.953H725.847C724.748 519.953 723.857 520.843 723.857 521.942C723.857 523.04 724.748 523.93 725.847 523.93H748.377C749.476 523.93 750.367 523.04 750.367 521.942C750.367 520.843 749.476 519.953 748.377 519.953Z" fill="white"/>
<path d="M662.917 519.621H659.292C658.193 519.621 657.302 520.512 657.302 521.61C657.302 522.708 658.193 523.599 659.292 523.599H662.917C664.016 523.599 664.907 522.708 664.907 521.61C664.907 520.512 664.016 519.621 662.917 519.621Z" fill="white"/>
<path d="M693.099 519.953H670.569C669.47 519.953 668.579 520.843 668.579 521.942C668.579 523.04 669.47 523.93 670.569 523.93H693.099C694.198 523.93 695.089 523.04 695.089 521.942C695.089 520.843 694.198 519.953 693.099 519.953Z" fill="white"/>
<path d="M673.972 510.645H670.347C669.248 510.645 668.357 511.535 668.357 512.633C668.357 513.731 669.248 514.622 670.347 514.622H673.972C675.071 514.622 675.962 513.731 675.962 512.633C675.962 511.535 675.071 510.645 673.972 510.645Z" fill="white"/>
<path d="M715.431 510.645H711.806C710.707 510.645 709.816 511.535 709.816 512.633C709.816 513.731 710.707 514.622 711.806 514.622H715.431C716.53 514.622 717.421 513.731 717.421 512.633C717.421 511.535 716.53 510.645 715.431 510.645Z" fill="white"/>
<path d="M727.177 510.645H723.552C722.453 510.645 721.562 511.535 721.562 512.633C721.562 513.731 722.453 514.622 723.552 514.622H727.177C728.276 514.622 729.167 513.731 729.167 512.633C729.167 511.535 728.276 510.645 727.177 510.645Z" fill="white"/>
<path d="M704.154 510.976H681.624C680.525 510.976 679.634 511.866 679.634 512.965C679.634 514.063 680.525 514.953 681.624 514.953H704.154C705.253 514.953 706.144 514.063 706.144 512.965C706.144 511.866 705.253 510.976 704.154 510.976Z" fill="white"/>
<path d="M685.028 501.668H681.403C680.304 501.668 679.413 502.558 679.413 503.656C679.413 504.755 680.304 505.645 681.403 505.645H685.028C686.127 505.645 687.018 504.755 687.018 503.656C687.018 502.558 686.127 501.668 685.028 501.668Z" fill="white"/>
<path d="M726.487 501.668H722.862C721.762 501.668 720.872 502.558 720.872 503.656C720.872 504.755 721.762 505.645 722.862 505.645H726.487C727.586 505.645 728.477 504.755 728.477 503.656C728.477 502.558 727.586 501.668 726.487 501.668Z" fill="white"/>
<path d="M738.233 501.668H734.608C733.509 501.668 732.618 502.558 732.618 503.656C732.618 504.755 733.509 505.645 734.608 505.645H738.233C739.332 505.645 740.223 504.755 740.223 503.656C740.223 502.558 739.332 501.668 738.233 501.668Z" fill="white"/>
<path d="M715.21 501.999H692.68C691.581 501.999 690.69 502.89 690.69 503.988C690.69 505.086 691.581 505.977 692.68 505.977H715.21C716.309 505.977 717.2 505.086 717.2 503.988C717.2 502.89 716.309 501.999 715.21 501.999Z" fill="white"/>
<path d="M696.084 492.691H692.459C691.36 492.691 690.469 493.581 690.469 494.68C690.469 495.778 691.36 496.668 692.459 496.668H696.084C697.183 496.668 698.074 495.778 698.074 494.68C698.074 493.581 697.183 492.691 696.084 492.691Z" fill="white"/>
<path d="M737.542 492.691H733.917C732.818 492.691 731.927 493.581 731.927 494.68C731.927 495.778 732.818 496.668 733.917 496.668H737.542C738.641 496.668 739.532 495.778 739.532 494.68C739.532 493.581 738.641 492.691 737.542 492.691Z" fill="white"/>
<path d="M749.289 492.691H745.664C744.565 492.691 743.674 493.581 743.674 494.68C743.674 495.778 744.565 496.668 745.664 496.668H749.289C750.388 496.668 751.279 495.778 751.279 494.68C751.279 493.581 750.388 492.691 749.289 492.691Z" fill="white"/>
<path d="M726.266 493.023H703.736C702.636 493.023 701.746 493.913 701.746 495.011C701.746 496.11 702.636 497 703.736 497H726.266C727.365 497 728.255 496.11 728.255 495.011C728.255 493.913 727.365 493.023 726.266 493.023Z" fill="white"/>
<path d="M643.644 624.825L626.627 597.944L680.042 555.392L702.089 530.983C704.953 527.811 708.6 525.447 712.666 524.126C716.731 522.804 721.072 522.572 725.255 523.453C729.438 524.333 733.317 526.295 736.503 529.143C739.69 531.991 742.073 535.624 743.414 539.681C745.401 545.692 744.974 552.239 742.222 557.941C739.47 563.644 734.609 568.054 728.665 570.243L693.802 583.078L643.644 624.825Z" fill="#FFB6B6"/>
<path d="M244.357 429.917V560.569H335.948V429.917C335.949 428.978 335.649 428.062 335.092 427.306C334.534 426.549 333.749 425.991 332.85 425.713C332.427 425.574 331.983 425.505 331.537 425.51H248.78C248.2 425.509 247.626 425.622 247.089 425.843C246.553 426.064 246.065 426.388 245.655 426.797C245.244 427.207 244.918 427.693 244.695 428.228C244.472 428.764 244.357 429.338 244.357 429.917ZM280.101 474.81C280.125 472.234 281.166 469.772 282.997 467.959C284.828 466.146 287.301 465.129 289.878 465.129C292.456 465.129 294.929 466.146 296.76 467.959C298.591 469.772 299.632 472.234 299.656 474.81V489.969C299.642 492.552 298.607 495.024 296.774 496.846C294.942 498.668 292.463 499.69 289.878 499.69C287.294 499.69 284.814 498.668 282.982 496.846C281.15 495.024 280.114 492.552 280.101 489.969V474.81Z" fill="#2F2E41"/>
<path d="M244.077 556.39V568.989C244.079 569.642 244.338 570.267 244.799 570.73C245.259 571.193 245.884 571.455 246.537 571.461H333.768C334.422 571.457 335.048 571.195 335.509 570.732C335.97 570.269 336.229 569.642 336.228 568.989V556.39H244.077Z" fill="#3F3D56"/>
<path d="M100.272 233.074V471.625C100.274 474.665 101.484 477.58 103.635 479.729C105.786 481.879 108.703 483.088 111.745 483.09H465.488C468.53 483.088 471.447 481.879 473.598 479.729C475.749 477.58 476.959 474.665 476.961 471.625V233.074C476.954 230.037 475.742 227.126 473.592 224.98C471.442 222.833 468.528 221.626 465.488 221.622H111.745C108.705 221.626 105.791 222.833 103.641 224.98C101.491 227.126 100.279 230.037 100.272 233.074Z" fill="#3F3D56"/>
<path d="M108.571 236.042V468.682C108.574 470.306 109.22 471.863 110.37 473.012C111.519 474.16 113.077 474.807 114.702 474.81H462.544C464.169 474.807 465.727 474.16 466.876 473.012C468.026 471.863 468.673 470.306 468.675 468.682V236.042C468.675 234.416 468.03 232.856 466.88 231.705C465.731 230.554 464.171 229.906 462.544 229.902H114.702C113.075 229.906 111.516 230.554 110.366 231.705C109.217 232.856 108.571 234.416 108.571 236.042Z" fill="black"/>
<path d="M173.124 570.607C173.478 571.051 173.928 571.408 174.44 571.653C174.952 571.898 175.513 572.024 176.081 572.021H383.024C383.59 572.02 384.149 571.894 384.66 571.65C385.171 571.406 385.621 571.052 385.977 570.613C386.334 570.174 386.588 569.66 386.721 569.111C386.854 568.561 386.863 567.988 386.747 567.435L383.534 552.186C383.401 551.564 383.114 550.986 382.7 550.503C382.286 550.02 381.758 549.649 381.163 549.422C380.733 549.253 380.274 549.167 379.812 549.167H179.281C178.818 549.167 178.36 549.253 177.93 549.422C177.335 549.649 176.807 550.02 176.392 550.503C175.978 550.986 175.692 551.564 175.559 552.186L172.346 567.435C172.232 567.988 172.242 568.56 172.377 569.109C172.511 569.657 172.767 570.169 173.124 570.607Z" fill="#2F2E41"/>
<path d="M451.255 261.949H125.781C125.443 261.942 125.121 261.802 124.884 261.56C124.648 261.319 124.515 260.994 124.515 260.656C124.515 260.318 124.648 259.993 124.884 259.751C125.121 259.509 125.443 259.37 125.781 259.362H451.255C451.593 259.37 451.915 259.509 452.152 259.751C452.388 259.993 452.521 260.318 452.521 260.656C452.521 260.994 452.388 261.319 452.152 261.56C451.915 261.802 451.593 261.942 451.255 261.949Z" fill="#3F3D56"/>
<path d="M147.936 252.758C152.126 252.758 155.522 249.289 155.522 245.009C155.522 240.729 152.126 237.26 147.936 237.26C143.747 237.26 140.351 240.729 140.351 245.009C140.351 249.289 143.747 252.758 147.936 252.758Z" fill="#FF0000"/>
<path d="M174.14 252.758C178.33 252.758 181.726 249.289 181.726 245.009C181.726 240.729 178.33 237.26 174.14 237.26C169.951 237.26 166.555 240.729 166.555 245.009C166.555 249.289 169.951 252.758 174.14 252.758Z" fill="#EEFF00"/>
<path d="M200.344 252.758C204.533 252.758 207.929 249.289 207.929 245.009C207.929 240.729 204.533 237.26 200.344 237.26C196.155 237.26 192.759 240.729 192.759 245.009C192.759 249.289 196.155 252.758 200.344 252.758Z" fill="#1EFF00"/>
<path d="M435.476 239.176H416.864C416.497 239.185 416.147 239.337 415.889 239.6C415.632 239.863 415.488 240.216 415.488 240.584C415.488 240.952 415.632 241.305 415.889 241.568C416.147 241.831 416.497 241.983 416.864 241.991H435.476C435.846 241.986 436.199 241.836 436.459 241.572C436.719 241.309 436.865 240.954 436.865 240.584C436.865 240.214 436.719 239.859 436.459 239.595C436.199 239.332 435.846 239.181 435.476 239.176Z" fill="#3F3D56"/>
<path d="M435.476 244.463H416.865C416.496 244.471 416.146 244.623 415.889 244.886C415.631 245.149 415.487 245.502 415.487 245.87C415.487 246.238 415.631 246.592 415.889 246.855C416.146 247.118 416.496 247.27 416.865 247.278H435.476C435.847 247.274 436.201 247.123 436.461 246.86C436.722 246.596 436.868 246.241 436.868 245.87C436.868 245.5 436.722 245.145 436.461 244.881C436.201 244.617 435.847 244.467 435.476 244.463Z" fill="#3F3D56"/>
<path d="M435.476 249.749H416.864C416.497 249.758 416.147 249.91 415.889 250.173C415.632 250.436 415.488 250.789 415.488 251.157C415.488 251.525 415.632 251.878 415.889 252.141C416.147 252.404 416.497 252.556 416.864 252.565H435.476C435.846 252.559 436.199 252.409 436.459 252.145C436.719 251.882 436.865 251.527 436.865 251.157C436.865 250.787 436.719 250.432 436.459 250.169C436.199 249.905 435.846 249.755 435.476 249.749Z" fill="#3F3D56"/>
<path d="M870.319 561.535C870.993 563.153 872.27 564.554 873.968 565.535C875.666 566.517 877.697 567.029 879.769 566.999L920.258 566.139C922.345 566.105 924.364 565.515 926.011 564.456C927.659 563.397 928.847 561.926 929.398 560.264L935.128 509.695C937.161 510.455 939.374 510.83 941.605 510.793C943.543 510.753 945.453 510.398 947.225 509.749C948.998 509.099 950.598 508.168 951.934 507.008C953.27 505.849 954.317 504.483 955.013 502.989C955.71 501.496 956.044 499.903 955.995 498.303C955.947 496.703 955.517 495.127 954.73 493.664C953.943 492.201 952.815 490.881 951.41 489.778C950.005 488.675 948.35 487.811 946.541 487.236C944.731 486.661 942.802 486.385 940.864 486.426C939.972 486.423 939.082 486.5 938.21 486.653C937.262 485.806 936.109 485.133 934.826 484.676C933.543 484.219 932.158 483.989 930.761 484L868.481 485.328C867.964 485.344 867.45 485.396 866.945 485.485C865.579 485.695 864.283 486.145 863.146 486.803C862.008 487.461 861.054 488.312 860.348 489.3C859.643 490.288 859.201 491.389 859.054 492.529C858.908 493.67 859.058 494.823 859.497 495.911L870.319 561.535ZM936.303 506.261L940.38 494.21C940.844 492.818 940.854 491.35 940.411 489.953C940.609 489.953 940.783 489.876 940.981 489.875C943.777 489.827 946.481 490.697 948.501 492.292C950.521 493.888 951.693 496.079 951.758 498.387C951.824 500.694 950.778 502.929 948.85 504.6C946.923 506.272 944.271 507.245 941.476 507.305C939.668 507.352 937.88 506.991 936.303 506.261Z" fill="#2F2E41"/>
<path d="M867 485.555C868.294 492.105 882.846 496.71 900.344 495.91C916.434 495.254 929.59 490.253 932 484.326C931.108 484.093 930.18 483.983 929.25 484.002L868.499 485.39C867.995 485.407 867.493 485.462 867 485.555Z" fill="#3F3D56"/>
<path d="M327.406 332.268H271.074C268.776 332.268 266.913 334.13 266.913 336.426V341.926C266.913 344.223 268.776 346.084 271.074 346.084H327.406C329.704 346.084 331.567 344.223 331.567 341.926V336.426C331.567 334.13 329.704 332.268 327.406 332.268Z" fill="white"/>
<path d="M360.242 359.901H238.239C235.941 359.901 234.078 361.762 234.078 364.059V369.559C234.078 371.855 235.941 373.717 238.239 373.717H360.242C362.54 373.717 364.403 371.855 364.403 369.559V364.059C364.403 361.762 362.54 359.901 360.242 359.901Z" fill="white"/>
<path d="M360.242 387.533H238.239C235.941 387.533 234.078 389.395 234.078 391.692V397.192C234.078 399.488 235.941 401.35 238.239 401.35H360.242C362.54 401.35 364.403 399.488 364.403 397.192V391.692C364.403 389.395 362.54 387.533 360.242 387.533Z" fill="#00D861"/>
<path d="M370.584 480.064L370.861 480.936L370.875 480.965L379.193 506.237L388.762 535.36L406.765 590.088L406.939 598.59V598.619L408.277 667.007L404.569 676.279L408.742 691.48C408.742 691.48 406.823 668.502 396.527 681.698C390.696 689.196 383.876 696.869 378.277 704.063C386.435 707.362 394.724 710.346 403.144 713.015C404.962 713.596 406.794 714.148 408.626 714.7C409.019 714.817 409.411 714.933 409.804 715.049C437.714 723.297 466.569 727.932 495.66 728.84C497.172 728.884 498.655 728.913 500.095 728.942C500.604 728.956 501.098 728.971 501.593 728.971C503.222 728.986 504.836 729 506.464 729C509.751 729 513.023 728.952 516.28 728.855C540.39 728.176 564.359 724.936 587.783 719.191C587.623 709.527 587.187 698.235 586.561 686.174C586.271 680.259 579.741 673.85 579.349 667.659C579.072 663.009 584.933 658.635 584.627 653.912C582.65 624.833 580.178 635.996 578.345 615.403C578.156 613.383 577.982 611.451 577.822 609.605C576.644 596.381 575.829 588.112 575.829 588.112L583.653 538.833L595.941 461.463L594.996 459.908L593.934 459.385L529.121 427.327L525.602 418.317C524.576 415.721 522.797 413.491 520.493 411.914C518.19 410.337 515.466 409.485 512.674 409.467L469.979 409.293C467.763 409.283 465.577 409.801 463.602 410.804C461.626 411.807 459.919 413.267 458.621 415.062L447.061 431.062L370.584 480.064Z" fill="#3F3D56"/>
<path d="M416.61 577.91L406.94 598.59L400.338 612.715L388.98 672.137L383.294 678.168L378.423 656.818L327.436 668.132C325.763 658.846 326.988 668.446 325.956 658.259C326.246 657.968 326.552 657.678 326.857 657.387C327.672 656.631 328.355 655.919 328.34 655.236C327.759 620.097 329.504 560.297 344.075 524.068C346.357 518.153 349.366 512.544 353.033 507.371C353.324 506.978 353.6 506.586 353.876 506.193C360.594 496.791 364.841 487.534 370.861 480.951V480.936C370.899 480.906 370.933 480.872 370.963 480.835C370.985 480.824 371.004 480.809 371.021 480.791L412.378 458.876L414.152 508.693L415.418 544.5L416.61 577.91Z" fill="#3F3D56"/>
<path d="M565.736 583.784L577.816 609.612L582.032 618.607L593.386 678.024L599.053 684.04L603.936 662.695L606.23 662.225L647.607 653.661L659.667 691.937C662.385 687.411 663.456 682.086 662.698 676.863C661.941 671.639 659.401 666.836 655.509 663.268C654.686 662.523 654 661.798 654.019 661.112C654.706 619.783 652.176 544.316 629.331 513.255C622.075 503.398 617.722 493.58 611.388 486.722C611.368 486.702 611.368 486.683 611.349 486.683L595.935 461.462L594.994 459.913L593.935 459.384L565.736 583.784Z" fill="#3F3D56"/>
<path d="M492.56 397.15C523.93 397.15 549.36 371.736 549.36 340.387C549.36 309.038 523.93 283.624 492.56 283.624C461.189 283.624 435.759 309.038 435.759 340.387C435.759 371.736 461.189 397.15 492.56 397.15Z" fill="#FFB6B6"/>
<path d="M569.332 300.739C568.892 300.268 568.361 299.892 567.772 299.631C567.183 299.371 566.547 299.232 565.903 299.223L566.757 296.853C567.036 296.107 567.111 295.3 566.975 294.515C566.839 293.73 566.497 292.995 565.983 292.386C565.47 291.777 564.803 291.315 564.052 291.048C563.301 290.781 562.493 290.718 561.709 290.866L558.599 291.465L558.892 289.388C559.005 288.615 558.914 287.825 558.628 287.098C558.343 286.37 557.873 285.729 557.264 285.238C556.656 284.747 555.93 284.423 555.158 284.298C554.387 284.172 553.595 284.249 552.863 284.522C552.196 284.784 551.479 284.894 550.764 284.843C550.049 284.792 549.355 284.582 548.732 284.229C548.107 283.886 547.564 283.411 547.141 282.836C546.718 282.262 546.426 281.603 546.285 280.904L545.201 275.681L545.086 275.401C539.809 266.611 529.662 260.216 517.246 257.872C506.194 255.77 494.861 256.84 483.937 257.846C479.603 258.254 474.707 258.712 470.628 261.209C467.161 263.349 464.229 267.63 464.828 271.948C454.057 268.649 442.507 275.235 436.784 283.541C430.002 293.426 428.893 305.809 428.714 315.49C428.23 338.395 432.959 357.134 442.737 371.198C443.451 372.217 443.629 374.345 445.044 375.058L444.751 374.587C446.332 375.376 447.938 376.65 447.339 378.013C445.618 381.937 457.052 390.612 465.109 393.479C479.806 398.714 499.348 398.268 513.09 396.383L513.575 393.135C518.533 392.459 522.026 391.173 523.008 389.16C524.742 387.682 526.22 386.357 527.508 385.134L527.52 385.122C527.546 385.096 527.597 385.058 527.622 385.033C533.83 379.083 535.271 375.695 535.921 370.536C536.546 365.478 535.437 360.344 534.302 355.72C558.191 359.414 524.894 330.293 547.152 324.662C547.407 324.584 547.666 324.52 547.929 324.471C548.579 324.318 549.229 324.166 549.854 323.987C552.865 323.17 555.748 321.94 558.42 320.331C564.641 316.548 566.694 311.528 569.906 305.872C570.369 305.067 570.564 304.135 570.461 303.212C570.357 302.288 569.962 301.422 569.332 300.739Z" fill="#2F2E41"/>
<path d="M693.455 587.825C693.442 590.054 693.417 593.175 693.315 597.035C693.302 597.57 693.289 598.118 693.276 598.679C693.111 605.774 692.945 611.723 692.677 618.335C692.665 618.793 692.652 619.239 692.626 619.698C692.269 628.921 691.709 639.66 690.74 656.667C688.942 688.081 685.806 660.985 682.658 672.004C682.505 672.552 682.339 673.202 682.186 673.966C681.709 676.739 680.905 679.446 679.79 682.03C678.12 683.024 676.399 683.979 674.703 684.934C669.872 687.622 664.964 690.208 660.018 692.667C657.239 694.043 654.448 695.393 651.643 696.693C651.197 696.896 650.764 697.1 650.33 697.291C635.969 703.93 621.168 709.574 606.033 714.183C603.075 715.075 600.131 715.941 597.148 716.744C594.037 717.61 590.927 718.425 587.778 719.19C564.355 724.936 540.387 728.177 516.277 728.859C513.027 728.96 509.751 728.999 506.462 728.999C504.83 728.999 503.224 728.986 501.592 728.973C501.095 728.973 500.598 728.961 500.101 728.948C498.66 728.91 497.169 728.884 495.665 728.846C466.573 727.939 437.719 723.302 409.81 715.05L408.625 714.706C406.789 714.145 404.966 713.597 403.143 713.011C394.73 710.349 386.44 707.368 378.273 704.069C372.039 701.559 365.878 698.867 359.789 695.992C359.733 695.977 359.681 695.951 359.636 695.916C358.361 695.33 357.074 694.718 355.799 694.094C355.633 694.005 355.455 693.915 355.276 693.826C350.521 691.508 345.817 689.079 341.165 686.54C337.251 677.559 331.744 675.839 328.328 667.941C327.334 665.594 326.615 663.14 326.186 660.628C326.186 660.603 326.174 660.577 326.174 660.539C326.531 665.278 324.657 652.132 326.161 660.488C326.148 660.335 326.135 660.17 326.123 659.979C326.084 659.52 326.033 658.96 325.957 658.259C321.585 615.596 321.865 566.806 319.966 526.601C319.838 524.003 319.706 521.514 319.57 519.136C319.532 518.346 319.481 517.569 319.43 516.805C319.519 516.576 319.621 516.334 319.736 516.104C319.761 516.038 319.79 515.974 319.825 515.913C319.863 515.834 319.906 515.758 319.953 515.684C319.978 515.646 320.017 515.595 320.042 515.557C320.061 515.513 320.082 515.47 320.106 515.429C320.221 515.251 320.348 515.06 320.488 514.881C320.552 514.805 320.603 514.741 320.667 514.678C320.711 514.612 320.762 514.553 320.82 514.499C320.859 514.438 320.906 514.382 320.96 514.334C321.011 514.283 321.062 514.219 321.126 514.155C321.153 514.115 321.187 514.081 321.228 514.053C321.328 513.938 321.439 513.831 321.559 513.735C322.014 513.317 322.5 512.933 323.012 512.588C323.191 512.474 323.382 512.359 323.56 512.232C324.845 511.464 326.198 510.816 327.601 510.295C328.086 510.117 328.57 509.951 329.093 509.773C329.284 509.722 329.462 509.658 329.654 509.595C329.934 509.506 330.215 509.416 330.508 509.353C331.961 508.92 333.529 508.55 335.224 508.206C335.428 508.168 335.645 508.13 335.862 508.079C336.168 508.015 336.486 507.964 336.805 507.913C337.238 507.837 337.685 507.76 338.131 507.684C341.917 507.085 346.213 506.639 350.955 506.346C351.401 506.321 351.847 506.295 352.293 506.27C352.816 506.244 353.339 506.219 353.874 506.193C354.32 506.168 354.779 506.155 355.238 506.142C355.684 506.117 356.143 506.104 356.615 506.092C357.902 506.053 359.228 506.015 360.579 505.99C364.429 505.913 368.483 505.939 372.74 506.028C374.716 506.079 376.73 506.13 378.795 506.219C378.936 506.219 379.063 506.232 379.191 506.232C380.988 506.295 382.798 506.372 384.659 506.474C385.959 506.537 387.272 506.601 388.585 506.678C389.822 506.754 391.071 506.83 392.333 506.92C393.315 506.971 394.296 507.047 395.291 507.111C396.132 507.174 396.973 507.238 397.815 507.289L398.962 507.365C399.586 507.416 400.211 507.455 400.849 507.518C402.251 507.633 403.653 507.748 405.081 507.862C406.496 507.99 407.936 508.117 409.377 508.244C410.817 508.372 412.27 508.512 413.723 508.652C413.876 508.665 414.017 508.678 414.157 508.69C415.483 508.83 416.808 508.958 418.147 509.098C418.453 509.123 418.772 509.149 419.077 509.187C420.354 509.315 421.655 509.465 422.942 509.602C423.338 509.645 423.731 509.686 424.127 509.729C425.136 509.839 426.131 509.934 427.146 510.053C428.485 510.206 429.849 510.346 431.175 510.525C432.207 510.639 433.24 510.754 434.272 510.881C435.891 511.072 437.536 511.276 439.18 511.493C439.805 511.569 440.429 511.646 441.054 511.735C445.745 512.321 450.487 512.971 455.306 513.646C462.61 514.678 470.029 515.799 477.499 517.009C484.982 518.219 492.507 519.497 500.075 520.843C501.987 521.187 503.899 521.531 505.824 521.888C506.691 522.053 507.558 522.219 508.425 522.385C509.903 522.652 511.382 522.932 512.861 523.213C514.339 523.493 515.818 523.773 517.297 524.066C519.056 524.41 520.828 524.754 522.587 525.098C534.175 527.391 545.698 529.837 556.942 532.398C558.79 532.818 560.639 533.251 562.474 533.671C566.145 534.525 569.783 535.391 573.386 536.27C574.38 536.499 575.362 536.742 576.343 536.984C578.791 537.595 581.238 538.207 583.648 538.831L584.068 538.945C585.84 539.378 587.574 539.824 589.308 540.283C593.4 541.353 597.424 542.436 601.38 543.531C604.006 544.258 606.602 544.992 609.168 545.735C613.005 546.844 616.766 547.965 620.424 549.098C621.329 549.379 622.234 549.659 623.127 549.926C625.804 550.754 628.443 551.595 631.005 552.436C633.044 553.098 635.033 553.774 636.996 554.449C638.959 555.124 640.884 555.799 642.771 556.474C643.982 556.907 645.18 557.366 646.378 557.799C648.099 558.436 649.795 559.073 651.452 559.71C651.962 559.901 652.459 560.105 652.956 560.296C653.275 560.436 653.581 560.551 653.887 560.678C654.486 560.92 655.098 561.149 655.684 561.391C656.283 561.621 656.869 561.863 657.456 562.118C658.03 562.347 658.616 562.589 659.177 562.831C659.75 563.06 660.311 563.302 660.872 563.557C661.344 563.748 661.803 563.952 662.249 564.156C663.154 564.551 664.059 564.946 664.939 565.353C665.372 565.557 665.806 565.748 666.239 565.952L667.233 566.411C667.373 566.487 667.514 566.551 667.654 566.615C667.973 566.767 668.304 566.933 668.623 567.086C669.362 567.43 670.089 567.799 670.803 568.143C671.759 568.627 672.689 569.111 673.582 569.583C674.487 570.067 675.366 570.551 676.207 571.022C676.348 571.099 676.475 571.175 676.615 571.252C676.807 571.353 676.998 571.468 677.189 571.57C677.839 571.939 678.464 572.322 679.088 572.691C680.312 573.443 681.472 574.181 682.556 574.92C682.798 575.086 683.027 575.251 683.27 575.404C684.073 575.978 684.838 576.538 685.551 577.111C685.551 577.124 685.551 577.124 685.564 577.124C685.806 577.302 686.036 577.494 686.265 577.672C686.457 577.85 686.66 578.003 686.852 578.181C687.514 578.755 688.126 579.302 688.687 579.863C688.875 580.036 689.054 580.219 689.223 580.411C689.297 580.472 689.365 580.54 689.427 580.615C689.682 580.869 689.911 581.124 690.128 581.379C690.161 581.414 690.191 581.452 690.217 581.494C690.523 581.85 690.803 582.207 691.071 582.564C691.199 582.742 691.339 582.92 691.454 583.099C691.607 583.315 691.759 583.545 691.887 583.761C692.002 583.94 692.104 584.131 692.206 584.309C692.476 584.768 692.707 585.25 692.894 585.748C693.037 586.087 693.152 586.436 693.238 586.793C693.335 587.131 693.407 587.476 693.455 587.825Z" fill="#2F2E41"/>
<path opacity="0.2" d="M693.455 587.825C693.442 590.054 693.417 593.175 693.315 597.035C693.302 597.57 693.277 598.118 693.264 598.679C693.136 604.093 692.945 610.781 692.678 618.335C692.665 618.793 692.652 619.239 692.626 619.698C692.27 628.921 691.709 639.66 690.74 656.667C688.942 688.081 685.807 660.985 682.658 672.004C673.913 666.628 664.327 660.998 654.078 655.214C652.23 654.17 650.364 653.121 648.482 652.068C627.984 640.641 605.089 628.666 581.188 616.806C580.244 616.335 579.288 615.864 578.345 615.405C523.594 588.36 463.834 562.054 415.419 544.5C406.075 541.111 397.152 538.054 388.764 535.366C371.096 529.722 355.824 525.773 344.071 524.066C331.834 522.283 323.382 522.92 319.966 526.601C319.838 524.002 319.706 521.514 319.57 519.136C319.519 518.346 319.468 517.569 319.417 516.805C319.496 516.595 319.598 516.395 319.697 516.193C319.712 516.164 319.722 516.133 319.736 516.104C319.761 516.038 319.79 515.974 319.825 515.913C319.863 515.834 319.906 515.758 319.953 515.684C319.994 515.594 320.046 515.508 320.106 515.429C320.221 515.251 320.348 515.06 320.488 514.881C320.591 514.748 320.702 514.62 320.82 514.499C320.859 514.438 320.906 514.382 320.96 514.333C321.011 514.282 321.062 514.219 321.126 514.155C321.153 514.115 321.188 514.081 321.228 514.053C321.328 513.938 321.439 513.831 321.559 513.735C322.014 513.317 322.5 512.933 323.012 512.588C323.191 512.474 323.382 512.359 323.56 512.232C324.845 511.464 326.198 510.815 327.601 510.295C328.086 510.117 328.57 509.951 329.093 509.773C329.284 509.722 329.463 509.658 329.654 509.595C329.934 509.505 330.215 509.416 330.508 509.353C331.961 508.919 333.529 508.55 335.224 508.206C335.734 508.104 336.27 508.002 336.805 507.913C337.239 507.837 337.685 507.76 338.131 507.684C341.917 507.085 346.213 506.639 350.955 506.346C351.401 506.321 351.847 506.295 352.293 506.27C352.816 506.244 353.339 506.219 353.874 506.193C354.32 506.168 354.779 506.155 355.238 506.142C355.684 506.117 356.143 506.104 356.615 506.091C357.902 506.053 359.228 506.015 360.579 505.989C364.429 505.926 368.483 505.951 372.74 506.04C374.716 506.079 376.73 506.142 378.795 506.232C378.923 506.232 379.063 506.244 379.191 506.244C380.988 506.295 382.811 506.384 384.659 506.474C385.96 506.537 387.273 506.601 388.585 506.677C389.822 506.754 391.071 506.83 392.333 506.919C393.315 506.97 394.296 507.047 395.291 507.111C396.132 507.174 396.973 507.238 397.815 507.289C398.822 507.365 399.829 507.442 400.849 507.518C402.251 507.633 403.653 507.747 405.081 507.862C406.496 507.989 407.936 508.117 409.377 508.244C410.817 508.372 412.27 508.512 413.724 508.652C413.877 508.665 414.017 508.677 414.157 508.69C415.483 508.83 416.808 508.958 418.147 509.098C425.566 509.849 433.202 510.728 441.054 511.735C445.745 512.334 450.496 512.975 455.306 513.658C462.61 514.69 470.029 515.811 477.499 517.009C484.982 518.219 492.507 519.497 500.075 520.843C501.987 521.187 503.899 521.531 505.824 521.888C508.17 522.321 510.515 522.762 512.861 523.213C514.34 523.493 515.818 523.773 517.297 524.066C519.056 524.41 520.828 524.754 522.587 525.098C534.175 527.391 545.699 529.837 556.942 532.397C558.79 532.818 560.639 533.251 562.474 533.671C566.146 534.525 569.783 535.391 573.386 536.27C574.38 536.512 575.362 536.754 576.344 536.996C578.804 537.608 581.239 538.219 583.648 538.831V538.843C583.788 538.869 583.928 538.907 584.069 538.945C585.828 539.391 587.574 539.837 589.308 540.296C593.4 541.366 597.424 542.444 601.38 543.531C604.006 544.27 606.606 544.996 609.168 545.735C613.005 546.856 616.766 547.977 620.425 549.098C621.33 549.379 622.235 549.659 623.127 549.926C625.804 550.767 628.43 551.604 631.005 552.436C633.045 553.098 635.033 553.774 636.996 554.449C638.959 555.124 640.884 555.799 642.771 556.474C643.995 556.907 645.193 557.353 646.378 557.786C648.112 558.423 649.795 559.06 651.452 559.71C651.962 559.901 652.459 560.105 652.956 560.296C653.887 560.653 654.792 561.022 655.684 561.391C656.283 561.621 656.87 561.863 657.456 562.118C658.03 562.347 658.616 562.589 659.177 562.831C659.751 563.06 660.311 563.302 660.872 563.557C661.344 563.748 661.803 563.952 662.249 564.156C663.154 564.551 664.059 564.946 664.939 565.353C665.372 565.557 665.806 565.748 666.239 565.952L667.233 566.411C667.374 566.487 667.514 566.551 667.654 566.614C668.738 567.124 669.783 567.634 670.803 568.143C671.759 568.627 672.689 569.111 673.582 569.583C674.64 570.143 675.647 570.691 676.616 571.251C676.807 571.353 676.998 571.468 677.189 571.57C677.839 571.939 678.464 572.322 679.089 572.691C680.312 573.442 681.472 574.181 682.556 574.92C683.627 575.659 684.621 576.385 685.552 577.111C685.552 577.124 685.552 577.124 685.564 577.124C686.01 577.481 686.444 577.837 686.852 578.181C687.515 578.755 688.127 579.302 688.687 579.863C688.875 580.036 689.054 580.219 689.223 580.411C689.297 580.472 689.365 580.54 689.427 580.615C689.695 580.908 689.962 581.201 690.217 581.494C690.523 581.85 690.804 582.207 691.071 582.564C691.199 582.742 691.339 582.92 691.454 583.099C691.607 583.315 691.76 583.545 691.887 583.761C692.002 583.939 692.104 584.131 692.206 584.309C692.476 584.768 692.707 585.25 692.894 585.748C693.034 586.088 693.149 586.437 693.238 586.793C693.335 587.131 693.407 587.476 693.455 587.825Z" fill="black"/>
<path d="M869.431 534.811C869.431 534.116 869.978 533.443 871.072 532.794C872.177 532.145 873.601 531.581 875.344 531.102C878.5 530.236 881.787 529.57 885.205 529.103C885.604 527.986 885.974 526.921 886.316 525.907C885.097 526.807 883.73 527.513 882.214 528.026C880.699 528.539 879.326 528.795 878.096 528.795C876.865 528.795 875.828 528.692 874.985 528.487C874.142 528.271 873.362 527.935 872.644 527.479C871.106 526.499 870.337 524.887 870.337 522.643C870.337 520.387 870.941 518.359 872.148 516.559C873.356 514.758 874.991 513.363 877.053 512.372C879.127 511.369 881.474 510.868 884.094 510.868C886.715 510.868 888.743 511.437 890.178 512.577C891.215 512.258 892.417 511.979 893.784 511.739C895.163 511.489 896.239 511.363 897.014 511.363C897.8 511.363 898.461 511.551 898.997 511.927C899.543 512.303 899.817 512.736 899.817 513.226C899.817 513.705 899.646 514.434 899.304 515.414C898.974 516.393 898.398 518.028 897.578 520.318C896.758 522.608 895.977 524.91 895.237 527.223C897.538 526.596 899.988 525.667 902.585 524.437C903.018 524.232 903.354 524.129 903.594 524.129C904.095 524.129 904.346 524.329 904.346 524.728C904.346 525.035 904.141 525.337 903.73 525.633C901.851 527.046 898.78 528.345 894.519 529.53L894.058 531.051C893.739 532.122 893.158 533.067 892.314 533.888C891.471 534.719 890.509 535.38 889.426 535.87C888.344 536.36 887.102 536.759 885.701 537.066C883.263 537.613 880.511 537.887 877.446 537.887C872.103 537.887 869.431 536.861 869.431 534.811ZM885.649 523.788C886.538 523.07 887.313 521.953 887.974 520.438C888.646 518.923 888.982 517.698 888.982 516.764C888.982 515.829 888.822 515.186 888.503 514.833C888.196 514.479 887.581 514.303 886.658 514.303C885.746 514.303 884.738 514.701 883.633 515.499C882.539 516.285 881.645 517.293 880.95 518.524C880.266 519.754 879.924 520.882 879.924 521.908C879.924 522.933 880.146 523.679 880.591 524.146C881.047 524.602 881.548 524.83 882.095 524.83C882.653 524.83 883.069 524.813 883.342 524.779C883.627 524.745 883.992 524.648 884.436 524.488C884.88 524.317 885.285 524.084 885.649 523.788ZM883.701 533.324L884.504 531.051C879.412 531.86 876.865 533.016 876.865 534.52C876.865 534.964 877.076 535.318 877.498 535.58C877.931 535.853 878.472 535.99 879.121 535.99C881.548 535.99 883.075 535.101 883.701 533.324Z" fill="#FF8800"/>
<path d="M915.012 532.684C911.674 532.684 908.609 532.091 905.817 530.906C905.236 531.487 904.513 531.869 903.647 532.051C902.792 532.245 901.647 532.342 900.212 532.342C898.788 532.342 897.403 532.177 896.059 531.846C894.715 531.516 893.649 531.111 892.863 530.633C892.066 530.154 891.667 529.687 891.667 529.231C891.667 528.969 891.781 528.759 892.009 528.599C892.237 528.44 892.499 528.36 892.795 528.36C893.843 528.36 894.618 528.195 895.119 527.864C895.632 527.522 896.122 526.896 896.589 525.984C897.067 525.073 897.529 524.025 897.973 522.84C898.417 521.644 898.828 520.527 899.204 519.49C899.591 518.453 900.024 517.405 900.502 516.346C901.562 514.033 902.889 512.495 904.484 511.731C905.248 511.367 906.245 511.088 907.475 510.894C908.706 510.689 909.668 510.586 910.363 510.586C911.07 510.586 911.525 510.598 911.73 510.621C911.947 510.632 912.163 510.666 912.38 510.723C912.813 510.837 913.029 511.076 913.029 511.441C913.029 511.692 912.978 511.925 912.875 512.142C912.784 512.347 912.528 512.791 912.106 513.475C911.685 514.158 911.127 515.588 910.432 517.764C913.212 517.593 915.336 517.018 916.806 516.038C918.276 515.047 919.011 513.782 919.011 512.244C919.011 510.159 917.245 508.974 913.713 508.689C912.995 508.632 911.947 508.604 910.568 508.604C909.19 508.604 907.657 508.769 905.971 509.1C904.285 509.419 902.963 509.772 902.006 510.159C901.061 510.547 900.206 510.905 899.443 511.236C898.68 511.555 898.19 511.714 897.973 511.714C897.381 511.714 897.084 511.521 897.084 511.133C897.084 510.735 897.455 510.262 898.195 509.715C898.936 509.168 899.956 508.627 901.254 508.091C902.565 507.556 904.012 507.06 905.595 506.604C909.173 505.579 912.87 505.066 916.687 505.066C920.503 505.066 923.397 505.665 925.368 506.861C927.351 508.046 928.342 509.618 928.342 511.578C928.342 513.537 927.356 515.167 925.385 516.465C923.426 517.764 920.731 518.482 917.302 518.619C919.501 518.641 921.523 519.171 923.369 520.208C924.257 520.698 924.981 521.342 925.539 522.139C926.097 522.937 926.376 523.86 926.376 524.908C926.376 525.956 926.154 526.941 925.71 527.864C925.277 528.776 924.696 529.528 923.967 530.12C923.249 530.713 922.389 531.202 921.386 531.59C919.552 532.319 917.427 532.684 915.012 532.684ZM909.953 519.268C909.737 519.986 909.309 521.438 908.671 523.626C908.033 525.802 907.589 527.26 907.338 528.001C907.088 528.73 906.957 529.106 906.945 529.129C907.31 529.174 907.891 529.197 908.688 529.197C909.497 529.197 910.397 529.089 911.389 528.873C912.391 528.645 913.286 528.303 914.072 527.847C914.869 527.391 915.49 526.776 915.935 526.001C916.39 525.227 916.618 524.287 916.618 523.182C916.618 522.076 915.974 521.159 914.687 520.43C913.4 519.701 911.822 519.314 909.953 519.268Z" fill="#FF8800"/>
<path d="M882.069 530.496C882.553 530.383 883.022 530.215 883.509 530.116C884.226 529.971 884.96 529.919 885.676 529.761C885.84 529.724 886.018 529.65 886.187 529.65C886.291 529.65 886.395 529.65 886.499 529.65" stroke="#FF8800" stroke-width="2" stroke-linecap="round"/>
<path d="M872.753 533.587C872.98 533.385 873.204 533.189 873.453 533.013C874.324 532.396 875.279 532.083 876.296 531.793C878.455 531.177 880.629 530.608 882.795 530.016C884.764 529.477 886.734 528.938 888.706 528.41C890.504 527.928 892.326 527.61 894.162 527.317" stroke="#FF8800" stroke-width="2" stroke-linecap="round"/>
</g>
<defs>
<clipPath id="clip0_434_72">
<rect width="1003" height="729" fill="white"/>
</clipPath>
</defs>
</svg>
