<svg width="138" height="122" viewBox="0 0 138 122" fill="none" xmlns="http://www.w3.org/2000/svg">
<circle cx="54" cy="68" r="54" fill="black"/>
<path d="M8.53467 88.1309C8.53467 87.0387 9.39404 85.9824 11.1128 84.9619C12.8494 83.9414 15.0874 83.0552 17.8267 82.3032C22.786 80.9425 27.9512 79.8952 33.3223 79.1611C33.9489 77.4066 34.5308 75.7326 35.0679 74.1392C33.1522 75.5535 31.0037 76.6636 28.6226 77.4692C26.2414 78.2749 24.084 78.6777 22.1504 78.6777C20.2168 78.6777 18.5876 78.5166 17.2627 78.1943C15.9378 77.8542 14.7114 77.326 13.5835 76.6099C11.1665 75.0701 9.95801 72.5368 9.95801 69.0098C9.95801 65.4648 10.9069 62.278 12.8047 59.4492C14.7025 56.6204 17.2716 54.4272 20.5122 52.8696C23.7707 51.2941 27.4588 50.5063 31.5767 50.5063C35.6945 50.5063 38.8813 51.4015 41.1372 53.1919C42.7664 52.6906 44.6553 52.252 46.8037 51.876C48.9701 51.4821 50.6619 51.2852 51.8794 51.2852C53.1147 51.2852 54.1532 51.5806 54.9946 52.1714C55.854 52.7622 56.2837 53.4425 56.2837 54.2124C56.2837 54.9644 56.0151 56.1102 55.478 57.6499C54.9588 59.1896 54.0547 61.7588 52.7656 65.3574C51.4766 68.9561 50.2502 72.5726 49.0864 76.207C52.703 75.2223 56.5522 73.7632 60.6343 71.8296C61.3146 71.5073 61.8428 71.3462 62.2188 71.3462C63.0065 71.3462 63.4004 71.6595 63.4004 72.2861C63.4004 72.7695 63.0781 73.244 62.4336 73.7095C59.4795 75.9295 54.6545 77.9705 47.9585 79.8325L47.2334 82.2227C46.7321 83.9056 45.819 85.3916 44.4941 86.6807C43.1693 87.9876 41.6564 89.026 39.9556 89.7959C38.2547 90.5658 36.3032 91.1924 34.1011 91.6758C30.2697 92.5352 25.946 92.9648 21.1299 92.9648C12.7331 92.9648 8.53467 91.3535 8.53467 88.1309ZM34.0205 70.8091C35.417 69.6812 36.6344 67.9266 37.6729 65.5454C38.7292 63.1642 39.2573 61.2396 39.2573 59.7715C39.2573 58.3034 39.0067 57.2918 38.5054 56.7368C38.022 56.1818 37.0552 55.9043 35.605 55.9043C34.1727 55.9043 32.5882 56.5309 30.8516 57.7842C29.1328 59.0195 27.7274 60.604 26.6353 62.5376C25.561 64.4712 25.0239 66.2437 25.0239 67.855C25.0239 69.4663 25.373 70.639 26.0713 71.373C26.7874 72.0892 27.5752 72.4473 28.4346 72.4473C29.3118 72.4473 29.9653 72.4204 30.395 72.3667C30.8426 72.313 31.4155 72.1608 32.1138 71.9102C32.812 71.6416 33.4476 71.2746 34.0205 70.8091ZM30.959 85.7944L32.2212 82.2227C24.2183 83.4938 20.2168 85.311 20.2168 87.6743C20.2168 88.3726 20.548 88.9276 21.2104 89.3394C21.8908 89.769 22.7412 89.9839 23.7617 89.9839C27.5752 89.9839 29.9743 88.5874 30.959 85.7944Z" fill="#FF8800"/>
<path d="M79.5898 85.0742C74.3441 85.0742 69.528 84.1432 65.1416 82.2812C64.2285 83.1943 63.0916 83.7941 61.731 84.0806C60.3882 84.3849 58.5889 84.5371 56.333 84.5371C54.0951 84.5371 51.9198 84.2775 49.8071 83.7583C47.6945 83.2391 46.0205 82.6035 44.7852 81.8516C43.5319 81.0996 42.9053 80.3656 42.9053 79.6494C42.9053 79.2376 43.0843 78.9064 43.4424 78.6558C43.8005 78.4051 44.2122 78.2798 44.6777 78.2798C46.3249 78.2798 47.5423 78.0202 48.3301 77.501C49.1357 76.9639 49.9056 75.9792 50.6396 74.5469C51.3916 73.1146 52.1167 71.4674 52.8149 69.6055C53.5132 67.7256 54.1577 65.971 54.7485 64.3418C55.3573 62.7126 56.0376 61.0654 56.7896 59.4004C58.4546 55.766 60.5404 53.349 63.0469 52.1494C64.2464 51.5765 65.813 51.1379 67.7466 50.8335C69.6802 50.5112 71.193 50.3501 72.2852 50.3501C73.3952 50.3501 74.1113 50.368 74.4336 50.4038C74.7738 50.4217 75.1139 50.4754 75.4541 50.5649C76.1344 50.744 76.4746 51.12 76.4746 51.6929C76.4746 52.0868 76.394 52.4538 76.2329 52.7939C76.0897 53.1162 75.6868 53.8145 75.0244 54.8887C74.362 55.9629 73.4847 58.2098 72.3926 61.6294C76.7611 61.3608 80.1001 60.4567 82.4097 58.917C84.7192 57.3594 85.874 55.3721 85.874 52.9551C85.874 49.6787 83.099 47.8167 77.5488 47.3691C76.4209 47.2796 74.7738 47.2349 72.6074 47.2349C70.4411 47.2349 68.033 47.4945 65.3833 48.0137C62.7336 48.515 60.6567 49.07 59.1528 49.6787C57.6668 50.2874 56.3241 50.8514 55.1245 51.3706C53.925 51.8719 53.1551 52.1226 52.8149 52.1226C51.884 52.1226 51.4185 51.8182 51.4185 51.2095C51.4185 50.5828 52.0003 49.8398 53.1641 48.9805C54.3278 48.1211 55.9302 47.2707 57.9712 46.4292C60.0301 45.5877 62.3039 44.8089 64.7925 44.0928C70.4142 42.4814 76.224 41.6758 82.2217 41.6758C88.2194 41.6758 92.7669 42.6157 95.8643 44.4956C98.9795 46.3576 100.537 48.8283 100.537 51.9077C100.537 54.9871 98.9884 57.5474 95.8911 59.5884C92.8117 61.6294 88.5775 62.7573 83.1885 62.9722C86.6439 63.008 89.8218 63.8405 92.7222 65.4697C94.1187 66.2396 95.2555 67.2511 96.1328 68.5044C97.0101 69.7576 97.4487 71.2078 97.4487 72.855C97.4487 74.5021 97.0996 76.0508 96.4014 77.501C95.721 78.9333 94.8079 80.1149 93.6621 81.0459C92.5342 81.9769 91.1825 82.7467 89.6069 83.3555C86.7244 84.5013 83.3854 85.0742 79.5898 85.0742ZM71.6406 63.9927C71.3005 65.1206 70.6291 67.4033 69.6265 70.8408C68.6239 74.2604 67.9256 76.5521 67.5317 77.7158C67.1379 78.8617 66.932 79.4525 66.9141 79.4883C67.487 79.5599 68.4001 79.5957 69.6533 79.5957C70.9245 79.5957 72.3389 79.4256 73.8965 79.0854C75.472 78.7274 76.8774 78.1903 78.1128 77.4741C79.366 76.758 80.3418 75.7912 81.04 74.5737C81.7562 73.3563 82.1143 71.8792 82.1143 70.1426C82.1143 68.4059 81.1027 66.9647 79.0796 65.8188C77.0565 64.673 74.5768 64.0643 71.6406 63.9927Z" fill="#FF8800"/>
</svg>
